<?xml version="1.0" encoding="utf-8"?>
<!-- Generator: Adobe Illustrator 23.0.1, SVG Export Plug-In . SVG Version: 6.00 Build 0)  -->
<svg version="1.1" xmlns="http://www.w3.org/2000/svg" xmlns:xlink="http://www.w3.org/1999/xlink" x="0px" y="0px"
	 viewBox="0 0 800 600" style="enable-background:new 0 0 800 600;" xml:space="preserve">
<style type="text/css">
	.st0{fill:none;stroke:#000000;stroke-width:0.5;stroke-linecap:round;stroke-linejoin:round;}
	.st1{font-family:'Roboto-Regular';}
	.st2{font-size:14px;}
</style>
<g id="Ivory_Coast">
	<path class="st0" d="M182.886,96.169l1.031-0.827l0.321-0.829l-1.057-0.378l-0.806-0.939l0.901-2.138l1.694-2.305l1.573-1.454
		l4.267-1.608l1.928-1.082l1.607-2.092l0.282-1.234l0.429-1.146l0.619-1.054l0.853-0.962l1.573,0.59l1.763-0.031l1.746-0.471
		l1.516-0.72l1.568-1.314l0.788-0.511l2.149-0.306l0.821-0.299l0.734-0.493l0.81-0.676l2.006-2.571l0.321-0.649l0.295-0.922
		l0.546-0.469l0.62-0.396l0.468-0.674l0.16-1.226l1.001-1.719l-1.105-1.444l1.689-0.357l1.852-1.112l0.951-1.407l-1.009-1.251
		l0.775-0.392l0.377-0.136V58.58l1.144-0.949l0.741-0.176l0.996,0.123l0.745-0.242l0.424-0.892l0.329-1.055l0.472-0.714l1.737-0.284
		l3.011,1.854l1.958,0.187l0.845-0.086l1.505,0.022l0.752-0.275l0.654-0.608l1.993-2.573l1.204-0.07l0.975,0.216l0.806,0.496
		l0.723,0.784l0.455,0.989l0.069,0.98l-0.069,0.896l0.061,0.755l0.334,0.85l1.408,2.372l0.117,0.925l-0.208,0.817l0.113,0.526
		l1.092,0.04l0.771-0.2l2.279-0.863l1.902,0.123l0.503,1.306l-0.533,3.481l0.074,2.052l0.706,1.05l1.378,0.365l5.276,0.114
		l6.646,1.028l8.248,2.32l1.417,0.825l1.369,1.622l1.248,1.921l1.486,1.355l2.075-0.071l1.958-0.7l1.742-1.305l1.027-1.796
		l-0.186-2.174l-0.801-0.94l-1.1-0.709l-0.888-0.768l-0.186-1.138l2.01-6.776l0.996-1.072l1.889-0.295l4.752,0.603l1.616-0.22
		l4.934-2.303l1.828-0.185l1.832,0.59l3.158,1.88l1.863,0.203l1.923-0.628l0.71-1.022l0.054-0.411l1.012,0.996l1.434,3.041
		l0.576,0.885l0.338,1.383l0.022,0.667l-0.225,1.092l-0.043,0.522l0.082,0.542l0.195,0.568l0.715,0.715l0.507,0.396l2.634,0.786
		l0.113,0.528l-0.381,1.851l-0.043,1.059l0.225,1.459l-0.052,0.436l-0.269,0.29l-0.312,0.26l-6.827,3.732l-3.336,1.078l-0.936,0.158
		l-0.516,0.02l-0.632-0.106l-0.671-0.224l-0.914-0.491l-0.983-0.891l-0.866-1.593l-3.137,0.57l-1.122-0.092l-2.266,0.376
		l-1.499,0.752l-0.983,1.261l0.654,0.781l0.078,0.416l-0.048,0.667l-0.273,0.702l-0.711,1.115l-0.351,0.818l-0.169,1.091
		l0.009,0.673l-0.23,0.732l-0.195,0.477l-1.78,1.656l-0.65,0.768l-1.451,2.219l-0.13,0.403l0.035,0.402l0.416,0.376l0.503,0.172
		l0.529,0.106l10.653-0.343l0.507,0.033l0.494,0.106l0.411,0.204l0.338,0.277l0.29,0.464l0.65,1.616l0.355,0.53l0.36,0.369
		l0.334,0.224l0.308,0.257l0.264,0.409l0.208,0.534l0.516,2.119l0.212,0.376l0.477,0.666l0.108,0.444l-0.03,0.528l-0.494,0.805
		l-0.398,0.435l-0.347,0.569l-0.303,0.851l-0.243,1.644l-0.407,1.345l-0.069,0.787l0.329,0.488l0.806,0.514l0.347,0.284l0.217,0.369
		l0.017,0.494l-0.156,0.569l-0.442,0.725l-0.269,0.58l0.043,0.833l0.208,0.475l0.256,0.415l0.126,0.356l-0.078,0.409l-0.559,0.468
		l-0.39,0.464l-0.273,0.593l-0.121,0.989l-0.165,0.688l-1.274,1.595l-0.23,0.365l-0.52,1.463l-0.992,4.15l1.529,0.903l0.524,0.51
		l0.732,1.015l1.152,0.969l0.498,0.323l0.225,0.233l0.108,0.553l-0.052,0.712l-0.334,1.12l-0.338,0.556l-0.399,0.356l-0.411,0.165
		l-0.368,0.211l-0.264,0.323l-0.152,0.461l-0.195,1.017l-0.169,0.448l-0.225,0.356l-0.264,0.25l-0.195,0.303l-0.022,0.342l0.1,0.555
		l0.364,0.968l0.16,0.632l-0.126,0.714l-0.728,1.113l0.035,1.082l0.299,1.594l0.992,3.508l1.204,2.202l0.303,0.283L300.66,153
		l0.554,0.678l0.334,0.257l0.169,0.865l-0.087,1.389l-0.962,4.83l-0.078,1.161l0.667,1.191l0.143,0.654l0.03,0.5l-0.693,2.385
		l-3.063,1.838l-2.062,0.566l-0.758,0.368l-1.044,0.711l-1.018,0.357l-3.327,0.79l-0.866,0.428l-0.498,0.507l-0.126,0.54
		l-0.238,0.621l-0.529,0.816l-0.182,0.625l-0.061,0.575l0.065,1.217l0.009,0.033v0.02l0.398,3.813l-0.026,0.513l-0.156,0.526
		l-0.282,0.007l-0.312-0.138l-0.602-0.585l-0.411-0.23l-0.529-0.145l-0.94,0.053l-0.633-0.059l-0.472-0.204l-0.316-0.279
		l-0.459-0.21l-0.568-0.125l-2.378,0.482l-1.369,0.136l-0.529-0.026l-0.472-0.083l-0.446-0.147l-0.39-0.211l-0.338-0.27
		l-0.277-0.322l-0.927-1.388l-0.273-0.311l-0.368-0.191l-0.468-0.059l-1.469,0.112l-0.494-0.085l-0.39-0.191l-0.299-0.197
		l-0.191-0.191l-0.013-0.013l-0.009-0.02l-0.052-0.059l-0.225-0.158l-0.429-0.224l-0.767-0.191l-0.524,0.046l-0.416,0.184
		l-0.238,0.204l-0.156,0.197l-0.004,0.013l-0.139,0.316l-0.767,0.941l-1.027,0.654l-1.343,1.237l-1.157,0.884l-2.118,0.618
		l-1.126,0.039l-0.16,0.165l-0.074,0.366l0.208,0.355l0.355,0.186l0.65,0.053l0.806,0.21l0.009,0.495l-0.529,0.98l-0.013,1.136
		l-0.178,0.897l-0.386,0.763l-0.62,0.734l1.183,0.487l0.715,0.978l0.351,1.333l0.095,1.545l0.178,0.484l0.758,1.471l0.156,0.653
		l-0.195,0.62l-0.736,0.708l-0.16,0.723l-0.152,1.46l-0.996,4.069l-0.091,3.162l-0.29,1.643l-0.814,1.564l1.144,0.031l0.607,0.331
		l-0.108,0.436l-1.018,0.359l1.079,0.815l0.897,1.577l0.607,1.759l0.442,3.187l-2.721-2.49l-0.719-1.268l-0.316-0.843l-0.221-0.427
		l-0.481-0.539l-0.763-0.692l-2.11-1.42l-0.615-0.302l-0.892-0.263l-0.806-0.351l-0.728-0.434l-1.118-1.131l-2.235-3.094
		l-0.836-1.492l-0.416-0.454l-0.572-0.508l-1.854-1.17l-0.962-0.486l-0.715-0.456l-3.691-4.329l-3.063-1.764l-0.282-0.224
		l-0.303-0.349l-2.313-3.648l-0.624-0.684l-4.878-4.293l-2.608-0.881l-1.564-0.745l-0.689-0.467l-0.615-0.566l-0.524-0.783
		l-3.765-7.099l-2.097-2.917l-0.998-0.24l0.119-0.089l-1.057-1.292l-3.492-1.963l-1.872-1.459l-0.91-0.935l-1.148-2.172
		l-0.698-0.141l-0.845,0.355l-1.04,0.18l-4.263-1.696l-0.091-3.092l2.993-7.376l0.269-1.962l2.209-6.77l-0.438-0.738l-3.461-0.004
		l-1.772,0.373l-3.188,1.809l-1.72,0.65l-1.533,0.145l-1.88-0.088l-1.824-0.378l-1.373-0.718l-1.404-1.517l-4.878-6.948
		l-0.628-1.357l-0.398-1.509l-0.286-1.933l-0.048-1.874l0.109-0.78l3.084-22.117l-0.386-1.82l-1.572,0.132l-0.347-0.123
		l-0.342-0.774l0.247-0.306l0.403-0.11l0.139-0.202l-0.13-0.462l-0.195-1.482l-0.308-0.475l-0.481-0.123l-0.468-0.026l-0.282-0.172
		l-0.303-0.693l-0.268-0.869l0.074-0.752L182.886,96.169z"/>
	<path class="st0" d="M198.542,259.396l-0.216-0.855l-1.022-1.859l-1.395-1.553l-1.564-0.943l-0.468-1.201l-0.035-1.276l0.502-2.577
		l0.624-1.039l0.49-1.175l-0.074-0.825l-1.04,0.013l-5.051,1.738l-0.801,0.114l-8.166-2.51l-6.962-4.6l0.117-0.891l1.369-1.447
		l0.247-0.974l-0.195-1.589v-1.587l1.035-4.825l-0.134-1.743l-0.438-1.075l-0.585-0.933l-0.438-0.909l-0.009-1.018l0.464-0.598
		l4.072-3.243l1.17-0.158l3.002,0.611l1.711-0.18l2.785-1.11l1.698-0.131l0.715,0.236l0.914,0.815l0.548,0.269l0.687,0.044
		l1.473-0.123l0.771,0.118l2.5-0.655l1.287-0.171l1.196,0.219l1.04,0.826l0.581,1.119l0.451,1.22l0.65,1.123l0.918,0.812l1.198,0.67
		l1.363,0.41l1.404,0.048l1.425-0.657l0.152-1.191l-0.221-1.399l0.308-1.281l1.837-0.3l1.794,2.429l2.634,5.312l1.902,1.204
		l2.313,0.32l4.887-0.536l-1.742-3.597l-0.533-1.809l0.26-2.028l0.602-2.131l0.004-1.472l-1.044-3.524l-0.191-1.79l0.199-3.253
		l-0.438-1.586l-0.598-0.732l-2.337-1.577l-0.786-0.918l-2.006-3.661l-0.58-0.717l-1.581-1.391l-0.401-0.469l-0.669-1.067
		l-0.546-0.366l-0.492-0.013l-0.882,0.449l-0.372,0.048l-5.025-1.53l-1.859-0.215l-3.838-1.168l-0.84-2.617l1.529-7.355l0.355-4.164
		l0.407-2.004l0.814-2.057l0.004-0.009l1.265-1.34l7.521-3.86l1.611-0.189h1.655l2.001-0.303l1.341-1.001l0.998,0.24l2.097,2.917
		l3.765,7.099l0.524,0.783l0.615,0.566l0.689,0.467l1.564,0.745l2.608,0.881l4.878,4.293l0.624,0.684l2.313,3.648l0.303,0.349
		l0.282,0.224l3.063,1.764l3.691,4.329l0.715,0.456l0.962,0.486l1.854,1.17l0.572,0.508l0.416,0.454l0.836,1.492l2.235,3.094
		l1.118,1.131l0.728,0.434l0.806,0.351l0.892,0.263l0.615,0.302l2.11,1.42l0.763,0.692l0.481,0.539l0.221,0.427l0.316,0.843
		l0.719,1.268l2.721,2.49l1.1,2.361l0.511,1.929v3.471l0.823,5.211l0.849,1.666l1.282,1.344l1.62,1.035l-0.962,0.665l-0.264,0.469
		l0.065,0.492l0.013,3.763l-0.875,1.392l0.533,2.108l1.057,2.186l1.005,1.175l-0.529,1.604l0.398,1.169l0.736,1.098l0.49,1.387
		l-0.126,0.672l-0.78,1.125l-0.191,0.726v2.943l0.407,1.73l1.438,3.544l-10.57,0.053l-2.478-0.525l-0.754-1.544l-2.833-4.611
		l-0.269-0.348l-0.321-0.269l-3.076-1.991l-1.412-0.683l-2.933-0.696l-0.654-0.252l-0.451-0.315l-0.26-0.341l-0.407-0.755
		l-0.329-0.407l-0.433-0.436l-0.888-0.617l-1.278-1.123l-0.598-0.197l-0.728,0.026l-0.438,0.256l-0.325,0.309l-0.502,0.643
		l-0.576,0.558l-1.321,0.987l-0.602,0.538l-0.238,0.276l-0.178,0.263l-0.299,0.56l-0.762,2.87l-0.113,2.135l0.078,0.512l0.156,0.433
		l0.234,0.341l0.503,0.553l0.126,0.203l0.048,0.171l-0.078,0.151l-0.39,0.571l-0.156,0.394l-0.078,0.453l0.022,0.459l0.078,0.311
		l0.065,0.158l0.529,0.912l0.095,0.256l0.1,0.381l0.091,2.629l0.104,0.446l0.009,0.453l-0.134,0.44l-0.594,0.492l-0.433,0.289
		l-0.29,0.282l-0.056,0.33l0.13,0.354l0.165,0.335l0.095,0.315l-0.169,0.262l-0.295,0.184l-0.26,0.21l-0.282,0.308l-0.26,0.369
		l-0.355,0.407l-0.528,0.026l-0.433,0.151l-0.355,0.21l-0.814,0.761l-0.814,0.488l-0.589,0.136l-0.615,0.039l-0.719-0.079
		l-0.745,0.304l-0.606,0.052l-0.377-0.092l-0.234-0.37l-0.178-0.426l-0.299-0.282l-0.247,0.013l-0.277,0.256l-0.277,0.335
		l-0.433,0.328l-0.918,0.921l-1.278,0.682l-0.594,0.203l-0.451,0.013l-0.238-0.256l-0.238-0.328l-0.26-0.276l-0.338-0.098
		l-0.615,0.63l-0.338,0.072l-0.303-0.164l-0.238-0.807l-0.251-0.367l-0.472-0.295l-0.355-0.291l-0.342-0.446l-0.633-0.472
		l-1.417-0.459l-1.733-0.282l-0.862-0.262l-0.438-0.363l-0.191-0.374l-0.676-1.063l-0.256-0.321l-0.611-0.551l-0.199-0.396
		l-0.152-0.446l-0.204-0.413l-0.446-0.243l-0.36-0.262l-0.619-0.558l-0.36-0.238l-0.438-0.171l-0.407-0.243l-0.585-0.164
		l-0.303-0.203l-0.043-0.335l0.152-0.335l0.108-0.354l-0.082-0.363l-0.494-0.617l-0.178-0.394l-0.113-0.4l-0.152-0.374l-0.022-0.039
		l-0.004-0.007l-0.039-0.02l-1.204-1.124l-1.096-0.413l-0.585,0.072l-0.372,0.328l-0.286,0.459l-0.563,0.114l-1.949-0.317
		l-1.538-0.656L198.542,259.396z"/>
	<path class="st0" d="M190.026,259.918l-0.156-0.722l1.278,0.044l3.509-0.575l0.823,0.265l0.81,0.7l1.018,0.643l1.486,0.118
		l-0.252-0.995l1.573,0.7l1.538,0.656l1.949,0.317l0.563-0.114l0.286-0.459l0.372-0.328l0.585-0.072l1.096,0.413l1.204,1.124
		l0.039,0.02l0.004,0.007l0.022,0.039l0.152,0.374l0.113,0.4l0.178,0.394l0.494,0.617l0.082,0.363l-0.108,0.354l-0.152,0.335
		l0.043,0.335l0.303,0.203l0.585,0.164l0.407,0.243l0.438,0.171l0.36,0.238l0.619,0.558l0.36,0.262l0.446,0.243l0.204,0.413
		l0.152,0.446l0.199,0.396l0.611,0.551l0.256,0.321l0.676,1.063l0.191,0.374l0.438,0.363l0.862,0.262l1.733,0.282l1.417,0.459
		l0.633,0.472l0.342,0.446l0.355,0.291l0.472,0.295l0.251,0.367l0.238,0.807l0.303,0.164l0.338-0.072l0.615-0.63l0.338,0.098
		l0.26,0.276l0.238,0.328l0.238,0.256l0.451-0.013l0.594-0.203l1.278-0.682l0.918-0.921l0.433-0.328l0.277-0.335l0.277-0.256
		l0.247-0.013l0.299,0.282l0.178,0.426l0.234,0.37l0.377,0.092l0.606-0.052l0.745-0.304l0.719,0.079l0.615-0.039l0.589-0.136
		l0.814-0.488l0.814-0.761l0.355-0.21l0.433-0.151l0.528-0.026l0.355-0.407l0.26-0.369l0.282-0.308l0.26-0.21l0.295-0.184
		l0.169-0.262l-0.095-0.315l-0.165-0.335l-0.13-0.354l0.056-0.33l0.29-0.282l0.433-0.289l0.594-0.492l0.134-0.44l-0.009-0.453
		l-0.104-0.446l-0.091-2.629l-0.1-0.381l-0.095-0.256l-0.529-0.912l-0.065-0.158l-0.078-0.311l-0.022-0.459l0.078-0.453l0.156-0.394
		l0.39-0.571l0.078-0.151l-0.048-0.171l-0.126-0.203l-0.503-0.553l-0.234-0.341l-0.156-0.433l-0.078-0.512l0.113-2.135l0.762-2.87
		l0.299-0.56l0.178-0.263l0.238-0.276l0.602-0.538l1.321-0.987l0.576-0.558l0.502-0.643l0.325-0.309l0.438-0.256l0.728-0.026
		l0.598,0.197l1.278,1.123l0.888,0.617l0.433,0.436l0.329,0.407l0.407,0.755l0.26,0.341l0.451,0.315l0.654,0.252l2.933,0.696
		l1.412,0.683l3.076,1.991l0.321,0.269l0.269,0.348l2.833,4.611l0.754,1.544l2.478,0.525l10.57-0.053l1.022,2.607l-0.009,1.734
		l-0.572,1.004l-0.849,0.796l-0.862,1.089l-0.316,0.63l-0.165,0.553l-0.095,1.365l0.173,0.861l0.749,0.905l0.173,0.597l0.312,5.529
		l0.537,2.934l0.923,2.225l0.069,0.964l-0.043,0.92l-0.221,0.855l-0.433,0.778l0.55,1.359l0.918,3.707l0.563,0.763l1.837-0.573
		h0.936l0.771,1.49l1.819,0.229l0.672,0.531l0.026,1.68l-1.243,0.885l-1.495,0.697l-0.723,1.095l0.485,2.021l0.087,0.865
		l-0.087,0.267l-0.199,0.155l-0.199,0.232l-0.087,0.503l0.243,0.31l1.131,0.66l0.342,0.498l-0.208,2.276l-1.443,0.928l-1.633,0.561
		l-0.771,1.169l-0.26,0.941l-0.572,0.826l-0.572,0.662l-0.442,0.741l-0.394,0.155l-0.394,0.229l-0.178,0.511l0.074,0.559
		l0.347,0.891l0.771,4.217l0.156,2.072l-0.516,1.467l-0.424,0.895l0.16,0.934l0.368,0.897l0.212,0.788l-0.581,2.88l-0.048,0.895
		l3.223,7.751l0.117,1.281l-0.277,1.194l-1.469,4.81l-0.394,2.667l0.004,0.943l0.169,1.737l-0.58-0.026l-3.942-0.681l-1.23-0.513
		l-2.058-1.394l-0.394-0.196l-0.875-0.033l-6.429,0.681l-2.842-0.694l-0.511-0.052l-1.139-0.026l-7.872,1.309l-2.383,0.648
		l-0.858,0.131l-8.846,0.039l-5.398,0.827l-1.048,1.953l-0.147,0.589l-0.342,4.403l-1.131,0.236l-14.006,0.196l-1.378-0.111
		l-1.204-0.255l-0.775-0.742l-0.36-0.55l-0.953-2.679l-0.385-0.785l-0.42-0.373l-0.628-0.347l-2.032-0.578l-1.174-0.196
		l-0.624-0.275l-0.719-0.452l-1.772-1.639l-0.68-0.511l-0.407-0.255l-2.162-0.93l-1.88,0.648l-3.305,3.177l-0.953,0.504
		l-0.689,0.157l-0.429-0.118l-0.256,0.258l-0.212,0.432l-0.373,0.53l-0.464,0.295l-0.637,0.275l-0.104,0.268l0.26,0.583
		l-0.364,1.121l-0.684,1.427l-0.147,0.532l-0.013,0.425l0.134,0.314l0.269,0.079l0.303,0.052l0.217,0.281l0.797,2.057l-0.056,0.517
		l-0.347,0.209l-0.507,0.192l-0.667,0.366l-0.775,0.628l-0.979,0.576l-0.49,0.229l-0.464,0.657l-0.966,0.72l-0.178,0.353
		l-0.026,0.838l-0.299,1.717l-0.355,0.923l-0.654,0.663l-0.507,0.327l-0.481,0.046l-0.307-0.19l-0.173-0.321l-0.039-0.36
		l-0.195-0.257l-0.503,0.02l-1.681,1.036l-0.269,0.484l0.087,0.334l0.554,1.173l0.035,0.582l-0.295,0.222l-0.849,0.137l-0.399,0.118
		l-0.438,0.072l-0.88-0.131l-0.204,0.183l0.178,0.689l0.026,0.471l-0.173,0.549l-0.052,0.464l0.069,0.445l0.017,0.408l-0.069,0.517
		l-0.615,0.307l-2.036,1.605l-0.563,0.091l-1.066,0.373l-0.676,0.334l-0.927,0.667l-0.615-0.02l-0.78-0.32l-8.214-5.284
		l-0.561-0.229l7.535-8.444l1.196-1.85l1.048-2.448l0.702-2.535l0.139-1.182l-0.063-1.143l-0.409-0.493l-0.684-0.458l-0.412-0.633
		l1.07-2.33l0.078-1.322l-0.104-1.388l0.104-1.497l0.455-0.724l1.711-1.336l0.628-0.794l0.212-2.034l-1.434-8.054l-0.117-2.061
		l-0.23-0.786l-0.515-0.878l-1.235-1.249l-0.294-0.528l-0.069-0.541l0.178-1.07l-0.043-0.559l-0.338-0.664l-1.005-1.262
		l-0.394-0.668l-0.658-2.62l-0.542-1.114l-1.43-2.04l-0.555-1.009l-0.451-1.638l-1.014-8.195l-1.716-5.973l-1.512-2.976
		l-3.505-1.766l3.808-3.544l2.114-1.101l2.006,2.294l1.56-0.127l2.976-0.892l2.812,0.721l3.175,2.473l3.05,1.333l2.409-2.71
		l0.039-0.594l-0.273-1.372l0.035-0.642l0.399-0.962l1.676-2.142l0.373-0.332l0.949-0.538l0.342-0.345l0.052-0.35l-0.234-0.831
		l0.056-0.35l2.695-3.104l0.398-1.224l0.303-2.82l0.325-1.36l0.39-0.468l0.55-0.332l0.474-0.468l0.163-0.848l-0.429-0.923
		l-1.871-1.627l-0.624-0.879l0.195-3.398l4.172-6.355l0.858-3.294L190.026,259.918z"/>
	<path class="st0" d="M640.875,135.401l1.135,1.445l0.091,1.21l-0.342,2.714l0.108,0.661l0.416,1.425v2.292l-0.429,1.447
		l-0.996,0.634l-1.144,0.534l-0.862,1.133l-0.139,1.602l0.658,1.31l1.187,0.876l1.464,0.325l1.317,0.731l-0.113,1.613l-1.001,1.615
		l-2.66,1.4l-0.979,1.54l-1.46,3.008l-1.785,1.843l-0.351,0.706l-0.16,4.247l-0.347,1.331l-0.788,1.2l0.819,0.467l0.537,0.561
		l0.659,0.463l1.161,0.193l2.149,0.105l2.118,0.478l2.118,1.134l0.542,1.364l0.087,1.735l1.308,3.982l0.498,0.382l0.563,0.083
		l0.468,0.202l0.191,0.73l0.104,1.458l1.707,5.919l-0.091,1.16l-0.888,0.495l-0.62,0.563l-0.217,1.081l0.406,0.667l0.018,0.03
		l0.758-0.355l0.398,1.33l3.858,23.75l3.858,23.733l-0.576,1.291l-3.765,2.23l-1.144,0.387l-0.966-0.103l-1.066-0.503l-0.693-0.044
		l-0.537,0.503l-0.585,1.131l-0.355,1.335l0.204,1.07l1.109,2.437l0.542,2.026l-0.078,1.477l-0.828,1.096l-1.729,0.882l-5.004,1.68
		l-1.542,1.102l-3.825,4.431L634,267.539l-0.117-0.271l-0.425-0.481l-0.559-0.372l-0.526,0.061l-0.245,0.621l-0.364,6.32
		l-0.277,0.936l-0.667,0.722l-1.865,1.128l-0.721,0.687l-0.069,0.424l0.245,1.098l-0.022,0.459l-0.323,0.555l-0.843,1.027
		l-0.325,0.555l-6.054,13.018l-1.12,3.426l-4.103,25.911l0.078,0.991l0.529,1.179l0.561,0.699l0.372,0.686l-0.061,1.153
		l-0.745,1.642l-3.843,4.825l-0.424,0.851l-0.693,4.226l-0.424,0.598l-4.152,1.358l-0.094,0.059l-0.003-0.042l-0.108-1.558
		l-3.483-6.68l-0.979-1.113l-1.326-1.181l-2.816-1.731l-1.889-1.467l-1.005-0.605l-6.078-1.889l-1.789-0.262l-1.074,0.052
		l-0.689,1.122l-0.498,0.662l-0.312,0.269l-0.416,0.059l-0.503-0.203l-1.365-1.598l-0.836-0.762l-0.303-0.354l-0.243-0.38
		l-0.169-0.36l-1.278-4.309l-0.338-0.432l-0.511-0.432l-1.027-0.533l-0.533-0.347l-0.468-0.157l-0.407,0.138l-0.338,0.026
		l-0.736-0.459l-0.529,0.144l-1.343-0.439l-0.29-0.046l-0.403,0.079l-2.673,0.839l1.239-1.931l-0.143-1.937l1.369-0.71l0.243-1.341
		l-0.516-3.46l-0.251-0.055l-1.837-2.722l-0.277-0.66l-0.359-0.516l-0.711-0.35l-0.944-0.155l-1.083-0.341l-0.996-0.452
		l-0.667-0.496l-0.13-0.811l1.646-1.61l0.459-1.016l-0.702-2.508l-1.646-0.396l-3.327,0.857l-0.737-0.474l-0.424-0.78l-0.503-0.732
		l-0.988-0.323l-0.295-0.553l-0.087-1.206l-0.325-1.208l-0.983-0.551l-2.088-0.363l-0.936-0.949l-0.749-2.785l0.646-1.948
		l-1.083-0.914l-1.854-0.203l-1.664,0.177l-0.528-0.603l-0.672-0.372l-0.801-0.026l-0.91,0.424l-0.563-1.714l-0.884-0.853
		l-1.321-0.293l-1.867-0.028v-0.577l0.892-0.402l0.147-0.599l-0.52-1.659l-0.199-0.367l-0.581-0.728l-0.117-0.525l0.351-0.525
		l0.451-0.507l0.199-0.466l-0.416-1.445l-0.516-0.94l-0.355-0.647l-1.096-0.792l-1.1,0.936l-0.866-0.704l-2.487-0.593l-1.226-0.437
		l-1.326-0.772l-0.065-0.278l0.762-0.203l1.148-0.534l1.477-1.238l0.663-0.822l0.204-0.776l-0.637-1.634l-0.81,0.105l-0.875,0.639
		l-0.832-0.028l-1.178-0.234l-1.438,0.418l-1.213,0.026l-0.511-1.393l0.494-3.813l0.403-3.119l0.923-2.076l1.438-1.114l1.893,0.61
		l0.333-0.368l0.654-0.932l0.208-0.433l-1.113-0.993l-3.206-3.974l-0.892-0.438l-0.841-0.07l-0.624-0.256l-0.243-0.998l0.295-1.033
		l1.256-1.749l0.217-1.005l-0.503-0.832l-1.971-1.195l-0.438-0.576l-0.087-0.851l-0.355-1.195l-0.078-0.819l0.897-0.125l4.167,0.035
		l1.226-0.225l0.654-0.876l0.208-0.891l-0.152-0.817l-0.425-0.652l-0.866-0.952l-0.004-0.293l0.36-0.23l0.225-0.76l0.13-0.289
		l0.26-0.245l0.208-0.359l-0.022-0.631l-0.247-0.385l-0.364-0.07l-0.338,0.028l-0.199-0.098l-0.433-0.648l-0.511-0.517l-0.178-0.67
		l0.55-1.112l0.251,0.28l1.144-0.221l1.755-0.585l0.537-1.566l0.372-1.091l-0.775-1.68l-3.071-1.726l-0.212-1.513l0.49-0.464
		l1.447-0.458l0.62-1.124l2.339-1.77l0.156-1.187l-0.507-1.873l-0.39-0.438l-0.455-1.284l-0.836-0.716l0.888-3.043l0.832-1.17
		l1.43-0.471l2.521-0.05l1.118-0.316l0.702-0.741l-1.326-0.383l0.264-0.734l1.581-1.249l2.149-3.43l0.481-0.572l1.048,0.309
		l0.832,0.399l0.55-0.327l0.199-1.856l-0.39-1.131l-0.936-1.004l-1.161-0.592l-1.053,0.094l-0.139-0.309l0.013-0.105l-0.056-0.039
		l-0.338-0.125l0.472-0.557l0.199-0.329l0.295-0.182l0.754-0.092v-0.631l-1.603-1.335l-2.513-2.973l-1.352-1.195l-1.317-2.055
		l0.65-1.482l1.78-1.09l2.062-0.879l1.122-0.18l1.222-0.037l0.901-0.362l0.191-1.158l-0.641-0.923l-1.256-0.752l-1.386-0.511
		l-2.985-0.735l-0.624-1.404l0.295-1.873l0.819-1.97l0.806,1.281l0.932,1.024l0.645-0.132l-0.039-2.174l-0.563-1.316l-0.983-0.007
		l-1.365,0.513l-1.72,0.23l0.165-0.309l0.043-0.05l0.095-0.002l0.32-0.165l-1.174-1.305l1.027-2.841l-1.334-0.544l-2.521,0.149
		l-0.628-0.149l-0.351-0.649l-0.169-0.974l-0.264-0.887l-0.65-0.388l-0.905-0.191l-1.711-0.832l-3.44-0.718l-2.24-1.492
		l-2.292-1.988l-0.459,0.393l-0.494,0.079l-0.598-0.022l-0.788,0.079l-1.3,0.402l-1.56,0.81l-0.52,0.661l-0.056,0.608l-0.212,0.268
		l-0.983-0.375l-0.29-0.336l-0.377-0.656l-0.329-0.751l-0.152-0.63l0.178-1.365l0.407-0.902l0.273-0.931l-0.23-1.442l-0.238-0.34
		l-0.351-0.255l-0.338-0.391l-0.221-0.755l0.035-0.698l0.186-0.571l0.204-0.446l0.095-0.316l0.1-0.828l0.429-0.876l0.1-0.67
		l-0.178-0.63l-0.788-1.377l-0.42-2.782l-0.663-1.175l-2.27-2.159l-0.537-0.701l-0.26-0.613l-0.087-0.683v-0.905l-0.204-0.938
		l-0.498-0.503l-0.65-0.358l-0.65-0.496l-3.726-5.015l-1.025-0.431l0.549-0.65l1.085-2.133l0.21-1.07l-0.249-2.008l0.013-0.749
		l0.461-0.776l2.539-2.672l-0.979-0.33l-0.372-0.075l1.116-1.013l1.445-0.521l3.158-0.409l1.547-0.859l2.404-3.392l1.512-1.145
		l1.443-0.18l4.77,1.413l0.875,0.486l0.49,0.154l0.52-0.114l0.165-0.402l0.03-0.444l0.087-0.233l1.287-0.622l0.695-0.229
		l2.688-0.039l0.533-1.194l0.353-1.392l1.245-0.666l1.798-0.457l3.156-2.053l1.548-0.46l0.161-0.048l5.552-0.106l1.612-0.484
		l0.713-0.534l1.343-1.449l0.849-0.565l1.222-0.387l4.072-0.506l0.626,0.088l1.094,0.624l0.529,0.106l0.446-0.26l0.778-0.965
		l0.284-0.198l1.131,0.369l0.639,0.614l0.548,0.693l0.895,0.638l1.432,0.303l5.012-0.677l13.187,1.097l1.057,0.405l1.471,1.361
		l0.894,0.468l0.763-0.264l0.983-0.614l0.866-0.343l0.373,0.581l-0.069,1.697l0.147,1.739l0.845,1.106l2.002-0.198l1.157-1.159
		l2.835-4.054l1.297-0.928l1.022,0.629l0.028,1.64l-0.182,2.007l0.368,1.702l1.462,0.868l1.882,0.04l1.943,0.44l1.679,2.062
		l1.051,4.097l0.823,1.98l1.464,1.229l1.512,0.073l2.885-0.855l1.59,0.378l1.315,1.338l1.02,1.978l1.503,3.959l4.17,8.152
		l8.361,11.187l1.913,1.478l2.006,0.156l1.573-1.379l2.049-4.343L640.875,135.401z"/>
	<path class="st0" d="M606.724,341.63l-0.057,0.036l-1.033,0.647l-9.669,16.636l-1.404,3.25l-0.117,3.052l0.364,0.855l1.048,1.355
		l1.131,2.188l0.195,0.563l-1.646,4.632l-0.455,0.552l-1.544,0.857l-0.604,0.885l-0.117,1.417l6.615,29.8l0.996,1.208l-0.008,0.014
		l-3.292,6.049l-0.81,2.12l0.004,0.51l0.299,1.699l0.074,0.995l-0.169,0.778l-0.195,0.558l-0.238,0.366l-0.55,0.588l-0.788,0.68
		l-0.797,1.322l-5.034,12.21l-6.108,10.055l-0.269,0.32l-0.316,0.248l-0.416,0.165l-3.383,0.882l-1.07-0.803l-0.923-0.531
		l-0.615-0.908l-0.225-2.034l0.022-0.549l0.074-1.701l0.346-1.487l2.712-5.222l0.208-0.928l0.069-1.1l0.29-0.83l0.697-0.314
		l0.867-0.17l0.775-0.412l0.923-1.673l-0.121-1.697l-0.88-1.392l-1.356-0.76l0.173-0.399l0.277-0.939l0.173-0.388l-1.326,0.349
		l-0.494,0.227l0.234-1.636l1.027-0.926l1.122-0.725l0.533-1.03l-0.286-4.266l-0.667-0.68l-1.399-2.904l-1.083-0.549l-0.918,0.506
		l-0.42,1.383l-0.949-0.111l0.13-0.314l-0.459-0.954l-0.581-0.898l-0.433-0.264l-0.407-0.63l-0.182-0.693l0.477-0.331l1.646-0.146
		l0.121-0.458l-0.563-0.8l-1.213-3.428l-1.91-2.811l-3.496-3.925l-1.083,1.927l-1.343,0.039l-1.573-0.514l-1.776,0.275l-0.884-4.082
		l-0.55-0.347l-1.655-1.65l-0.347-0.543l-0.095-0.251l-0.217-0.353l-0.217-0.484l-0.095-0.641l0.186-0.294l0.411-0.388l0.416-0.48
		l0.182-0.567l-0.498-3.82l-0.386-0.815l-0.399-0.58l-0.234-1.397l-0.199-0.641l-0.346-0.353l-1.048-0.815l-0.321-0.56l0.052-1.071
		l0.65-2.449l-0.182-1.09l-0.858-0.7l-0.797,0.445l-1.209,1.409l-0.429,0.039l-1.863-0.039l-1.204,0.216l-1.083,0.36l-0.494-0.948
		l-0.225-0.441l-0.398-1.234l-0.55-1.086l-1.191-0.953l2.604-1.106l0.134-1.821l-2.166-4.565l3.552-3.477l0.191-0.611l0.962-0.567
		l-0.832-1.23l-1.395-1.2l-0.711-0.46l0.221-1.35l0.931-1.516l1.126-1.235l0.814-0.511l0.719-0.685l-0.165-1.53l-0.801-1.589
		l-1.183-0.862l-0.529,1.927l-0.806-0.076l-0.797-1.366l0.468-2.163l1.975-1.783l3.124-0.524l0.966-0.915l0.689-0.995l0.875-0.904
		l1.529-0.646l2.651-0.327l1.092-0.788l0.212-1.823l2.994,0.952l1.096-0.09l-0.602-1.386l0.477-0.199l0.364-0.292l0.225-0.426
		l0.078-0.603l-0.338-0.454l-0.693,0.135l-0.594,0.373l-0.039,0.26l-2.417-0.43l-0.914-0.43l-0.732-0.871l-0.351-0.838l-0.775-2.74
		l-0.017-1.037l0.697-1.129l1.027-0.572l0.875,0.277l0.264,1.423l1.009-0.452l0.516-0.308l0.338-0.518l0.481-1.083l0.286-1.061
		l-0.052-0.889l-0.173-0.921l-0.069-2.47l0.095-0.507l2.201-0.448l1.69-0.068l0.641-0.426l0.529-1.288l-0.364,0.013l-0.087-0.103
		l0.004-0.203l-0.074-0.286l-0.598,0.341l-0.598,0.238l-0.182-1.861l0.801-1.249l2.673-0.839l0.403-0.079l0.29,0.046l1.343,0.439
		l0.529-0.144l0.736,0.459l0.338-0.026l0.407-0.138l0.468,0.157l0.533,0.347l1.027,0.533l0.511,0.432l0.338,0.432l1.278,4.309
		l0.169,0.36l0.243,0.38l0.303,0.354l0.836,0.762l1.365,1.598l0.503,0.203l0.416-0.059l0.312-0.269l0.498-0.662l0.689-1.122
		l1.074-0.052l1.789,0.262l6.078,1.889l1.005,0.605l1.889,1.467l2.816,1.731l1.326,1.181l0.979,1.113l3.483,6.68l0.108,1.558
		L606.724,341.63z"/>
	<path class="st0" d="M600.425,409.564l0.245,0.298l2.467,2.257l1.785,4.706l2.541,14.061l1.217,3.012l3.23,5.921l1.022,3.051
		l0.214,3.046l-0.821,9.614l5.445-0.466l-0.847,5.266l0.453,2.177l1.982,1.108l1.64-0.205l2.729-1.654l1.362-0.544l5.972,1.543
		l1.074,0.873l0.659,1.103l0.316,1.36l0.199,4.413l1.486,6.028l2.287,5.37l0.36,1.514l-0.212,1.469l-0.832,1.06l-1.113,0.204
		l-2.825-0.518l-0.55,5.21l0.238,1.168l1.17,1.686l0.372,0.968l-0.043,0.72l-0.355,1.76l0.069,0.768l0.264,0.291l1.105,0.946
		l0.459,0.542l-0.806,1.585l-1.196,0.855l-1.926,0.278l-3.34-0.13l-0.208-2.346l-2.783-0.366l-3.438,0.408l-2.204-0.048l0.689,1.695
		l-0.423,1.695l-1.214,1.315l-1.658,0.521l-1.31-0.383l-4.435-2.069l-1.385-1.055l-1.672,0.469l-3.322,0.092l-1.405,0.644
		l-0.645-1.6l-1.31-1.921l-1.545-1.603l-1.341-0.671l-0.686-0.63l0.9-1.329l1.3-1.213l0.512-0.281l0.399-1.189l0.246-2.49
		l0.498-0.973l1.15-0.719l0.89-0.219l0.573-0.531l0.205-1.662l-0.191-1.261l-0.559-0.603l-0.976-0.175h-1.398l-0.389,0.185
		l-0.498,0.411l-0.621,0.415l-0.757,0.185l-0.699-0.106l-1.15-0.469l-0.73-0.048l-0.812,0.288l-1.61,1.117l-1.061,0.377l0.839,1.919
		l0.43,1.727l-0.617,1.178l-2.374,0.288l0.372,0.644v0.596l-0.331,0.565l-0.611,0.551l0.768,0.507l0.375,0.116h-0.573l0.802,0.305
		l0.86,0.195l0.904,0.082l0.928-0.055v0.576l-0.791,0.363l-1.283-0.113l-0.846,0.271l-0.713,0.541l-0.645,0.719l-0.532,0.829
		l-0.396,0.887l-0.883-0.599l-0.597,0.315l0.143,0.733l1.337,0.651l-0.498,1.12l0.495,0.678l1.054,0.366l1.235,0.188l-3.049,2.456
		l-5.523-0.274l-13.473-2.87l0.011-0.006l9.301-4.852l2.127-1.868l-0.035-0.483l-0.117-0.411l-0.16-0.378l-0.238-0.328l-0.277-0.307
		l-1.59-1.325l-0.264-0.3l-0.23-0.339l-0.147-0.394l-0.104-0.431l-0.048-0.476v-0.483l0.671-3.751l-0.589-6.009l0.056-2l0.247-0.916
		l1.555-3.514l0.771-2.261l0.113-0.836v-0.668l-0.143-0.437l-0.173-0.372l-0.208-0.659l-0.424-3.752l-0.147-0.718l-0.182-0.379
		l-0.256-0.34l-0.333-0.222l-0.416-0.218l-0.338-0.366l-0.087-0.868l0.451-6.641l0.251-0.627l0.966-1.06l0.347-0.692l0.052-0.418
		l-0.351-0.699l-1.291-1.661l3.383-0.882l0.416-0.165l0.316-0.248l0.269-0.32l6.108-10.055l5.034-12.21l0.797-1.322l0.788-0.68
		l0.55-0.588l0.238-0.366l0.195-0.558l0.169-0.778l-0.074-0.995l-0.299-1.699l-0.004-0.51l0.81-2.12l3.292-6.049L600.425,409.564z
		 M605.155,505.754l-0.362,1.387l-0.051-0.014l-3.653-0.846l-8.238-0.794l-1.197-0.599l0.338-1.202l1.596-1.449l1.607-1.168
		l2.241,0.575l0.594,0.408l0.242,0.497l0.123,0.479l0.232,0.342l0.689,0.325l1.808,0.572l0.362-0.007l0.331-0.195l0.737,0.531
		l1.228,1.13l1.122,0.096L605.155,505.754z"/>
	<path class="st0" d="M403.349,55.669l1.464,0.846l1.477,1.929l1.022,2.149l0.095,1.482l1.191,0.44l0.581,0.103l0.775,0.035
		l0.498,0.299l0.364,0.694l0.286,0.762l0.26,0.517l0.901,0.795l1.148,0.594l1.408,0.348l1.694,0.066l0.394-0.26l0.316-0.48
		l0.312-0.33l0.433,0.194l0.368,0.247l0.442,0.075l0.957-0.031l0.97-0.229l0.529-0.531l0.425-0.59l0.628-0.394l1.412,0.053
		l3.877,0.575l1.339-0.363l4.12,2.437l0.749-0.084l0.624-1.134l1.373,0.115l1.324,0.878l0.058,0.038l0.62,1.268v4.68l-0.219,0.462
		l-0.318,0.495l0.095,0.379l1.02,0.092l0.591-0.198l0.498-0.431l0.383-0.552l0.245-0.563l0.236,1.75l-0.717,1.541l-0.048,0.927
		l2.244-0.095l-0.567,1.536l0.503,0.869l2.118,1.402l0.156,0.669l-1.965,0.684l-0.76,0.706l0.704,0.009l0.55,0.172l0.483,0.229
		l0.546,0.172l-1.142,0.53l0.682,1.001l0.931,0.136l0.981-0.425l0.834-0.713l0.425,1.538l0.899,0.816l1.103,0.528l1.016,0.658
		l0.938,1.296l0.581,1.56l-0.318,1.15l-1.776,0.064l0.375,0.862l0.94,1.234l0.914,1.993l0.156,0.539l-1.204,3.49l0.104,0.965
		l2.465,2.3l0.726,0.259l0.474-0.554l0.442-0.767l0.645-0.389l0.953,0.182l0.379,0.4l0.288,0.4l0.697,0.178l1.962,0.145l1.666,0.532
		l1.189,1.062l0.563,1.746l1.601-0.517l0.682,1.277l0.411,1.93l0.797,1.431l-1.341,0.481l-0.713,0.105l-0.814-0.057v0.633
		l0.745,0.67l0.16,0.334l0.24,0.684l1.111-0.33l1.109,1.787l1.274-0.242l-0.477-0.435l-0.141-0.393l0.297-0.286l0.834-0.101
		l0.864,0.114l0.42,0.299l0.277,0.459l0.472,0.607l0.97,0.872l0.312,0.556l0.121,0.897l0.182,0.653l0.451,0.356l1.131,0.468
		l0.424,0.483l-0.022,0.33l0.061,0.066l0.685-0.299l0.678-0.448l0.55-0.574l0.297-0.505l-0.091-0.215l1.233,0.004l1.038-0.143
		l0.988-0.523l1.083-1.132l0.949,0.793l1.206,1.813l0.973,0.349l1.217-0.345l0.316-0.879l0.039-1.145l0.411-1.169l0.264-0.576
		l0.067-0.334l0.264-0.163h1.523l0.656,0.132l0.503,0.259l0.197,0.418l-0.186,1.464l-0.823,2.202l-0.191,1.558l1.191,1.758
		l2.725,0.277l3.004-0.145l2.034,0.488l0.749,1.241l0.719,2.792l0.563,0.925l1.148,0.549l0.282-0.767l-0.017-1.395l0.251-1.342
		l1.287,0.352l2.274,0.947l0.006-0.007l1.025,0.431l3.726,5.015l0.65,0.496l0.65,0.358l0.498,0.503l0.204,0.938v0.905l0.087,0.683
		l0.26,0.613l0.537,0.701l2.27,2.159l0.663,1.175l0.42,2.782l0.788,1.377l0.178,0.63l-0.1,0.67l-0.429,0.876l-0.1,0.828
		l-0.095,0.316l-0.204,0.446l-0.186,0.571l-0.035,0.698l0.221,0.755l0.338,0.391l0.351,0.255l0.238,0.34l0.23,1.442l-0.273,0.931
		l-0.407,0.902l-0.178,1.365l0.152,0.63l0.329,0.751l0.377,0.656l0.29,0.336l0.983,0.375l0.212-0.268l0.056-0.608l0.52-0.661
		l1.56-0.81l1.3-0.402l0.788-0.079l0.598,0.022l0.494-0.079l0.459-0.393l2.292,1.988l2.24,1.492l3.44,0.718l1.711,0.832l0.905,0.191
		l0.65,0.388l0.264,0.887l0.169,0.974l0.351,0.649l0.628,0.149l2.521-0.149l1.334,0.544l-1.027,2.841l1.174,1.305l-0.32,0.165
		l-0.095,0.002l-0.043,0.05l-0.165,0.309l1.72-0.23l1.365-0.513l0.983,0.007l0.563,1.316l0.039,2.174l-0.645,0.132l-0.932-1.024
		l-0.806-1.281l-0.819,1.97l-0.295,1.873l0.624,1.404l2.985,0.735l1.386,0.511l1.256,0.752l0.641,0.923l-0.191,1.158l-0.901,0.362
		l-1.222,0.037l-1.122,0.18l-2.062,0.879l-1.78,1.09l-0.65,1.482l1.317,2.055l1.352,1.195l2.513,2.973l1.603,1.335v0.631
		l-0.754,0.092l-0.295,0.182l-0.199,0.329l-0.472,0.557l0.338,0.125l0.056,0.039l-0.013,0.105l0.139,0.309l1.053-0.094l1.161,0.592
		l0.936,1.004l0.39,1.131l-0.199,1.856l-0.55,0.327l-0.832-0.399l-1.048-0.309l-0.481,0.572l-2.149,3.43l-1.581,1.249l-0.264,0.734
		l1.326,0.383l-0.702,0.741l-1.118,0.316l-2.521,0.05l-1.43,0.471l-0.832,1.17l-0.888,3.043l0.836,0.716l0.455,1.284l-1.235,0.21
		l-0.806,0.224l-1.313,0.519l-0.442,0.053l-0.459-0.125l-0.438-0.394l-0.828-0.966l-0.212-0.173l-0.294-0.158l-1.334-0.322
		l-1.053-0.013l-0.68,0.066l-1.464,0.383l-0.754,0.004l-0.992-0.092l-1.858-0.414l-0.944-0.046l-0.737,0.02l-0.446,0.145
		l-0.498,0.085l-0.52-0.007l-0.572-0.158l-0.615-0.5l-0.693-0.776l-0.394-0.25l-0.507-0.138l-0.84,0.085l-0.563,0.158l-0.91,0.368
		l-0.459,0.092l-0.529-0.026l-0.529-0.21l-0.598-0.513l-0.308-0.469l-0.394-0.894l-0.407-0.408l-1.677-0.953l-0.49-0.502
		l-0.286-0.519l-0.169-0.993l-0.204-0.375l-0.39-0.285l-0.55-0.171h-0.94l-0.633,0.079l-1.958,0.447l-0.529-0.053l-0.459-0.197
		l-0.407-0.454l-0.208-0.467l-0.139-0.493l-0.71-5.107l-0.269-0.883l-0.208-0.368l-0.251-0.342l-0.632-0.546l-1.503-0.824
		l-0.312-0.27l-0.277-0.316l-0.81-1.508l-0.754-0.421l-1.183-0.454l-2.812-0.677l-1.152-0.48l-0.719-0.449l-0.429-0.737l-0.26-0.322
		l-0.29-0.237l-3.067-1.18l-0.693-0.191h-0.607l-0.983,0.316l-1.018,0.528l-30.594-0.989v-3.127l0.646-0.434l0.602-0.25l0.65-0.653
		l1.092-1.612l0.338-0.871l0.104-0.579l-0.048-0.151l-0.022-0.053l-0.009-0.046l1.109-7.764l-0.026-0.976l-0.13-0.691l-0.234-0.355
		l-0.286-0.276l-0.338-0.204l-0.814-0.138l-0.68-0.395l-0.385-0.16l-1.265-0.198l-0.39-0.184l-0.927-0.816l-0.793-0.375
		l-0.438-0.151l-0.451-0.362l-0.429-0.549l-0.97-2.49l-0.217-0.362l-0.26-0.336l-0.836-0.79l-0.29-0.397l-0.464-0.856l-0.182-0.645
		l-0.061-0.619l0.004-1.174l-0.312-2.603l-0.256-0.988l-0.957-0.476l-1.261-0.375l-8.595-1.462l-0.667,0.158l-0.394,0.257
		l-0.49,0.606l-0.637,0.645l-0.299,0.244l-0.381,0.191l-0.438,0.127l-0.568-0.061l-0.585-0.184l-0.68-0.481l-0.346-0.421
		l-0.234-0.448l-2.027-4.911l-0.516-0.773l-0.49-0.461l-0.481-0.105h-1.027l-3.83,0.606l-1.837-0.448l-2.816,3.425l-1.248,2.252
		l-0.516,2.234l-0.234,2.73l-0.819,2.517l-1.594,1.551l-2.556-0.158l1.152,1.266l0.507,1.279l-0.022,1.452l-1.031,3.725
		l-0.866,1.908l-1.291,1.171l-1.88-0.314l-0.126,2.259l5.03,3.292l1.386,2.562l-0.763-0.298l-0.832-0.202l-0.884-0.083l-0.901,0.057
		v0.526l0.494,0.23l1.222,0.982l-2.071,1.276l0.468,3.28l-2.166,0.658l-0.546,0.441l0.875,0.93l1.222,0.837l0.503,0.162l0.143,1.063
		l-0.62,0.866l-0.581,0.173l-0.845,0.307l-0.797-0.033l-0.494,0.316l-0.455,0.026l-0.906-0.086l-0.784-0.434l-0.68-0.138
		l-0.55-0.039l-1.482,0.118l-0.914,0.197l-0.433,0.145l-0.377,0.171l-0.325,0.257l-1.183,1.16l-0.321,0.25l-0.355,0.217
		l-0.771,0.355l-0.433,0.138l-0.429,0.099h-0.472l-0.923-0.21l-1.56-0.145l-0.438-0.145l-0.676-0.447l-0.485-0.138h-0.529
		l-0.663,0.164l-0.446,0.605l-1.178,2.955l-0.849,3.036l-0.039,0.723l0.117,0.486l0.26,0.013l0.403-0.381l0.273-0.631l0.368-0.331
		l0.438-0.099l0.399,0.145l0.338,0.25l0.234,0.357l0.264,0.907l0.221,0.348l0.789,0.401l0.277,0.296l0.026,0.508l-0.277,0.263
		l-0.399,0.125l-0.918,0.02l-0.503,0.342l-0.069,0.388l0.113,0.375l0.243,0.337l0.173,0.44l0.087,0.539l-0.273,1.58l-0.026,0.611
		l-0.156,0.71l-0.334,0.21l-0.377,0.105l-0.13,0.296l0.03,1.369l0.078,0.46l0.238,0.329l0.853,0.876l0.321,0.151l0.381-0.059
		l0.676-0.449l0.377-0.184l0.455-0.066l0.455,0.061l0.442,0.118l0.416,0.171l0.368,0.224l0.295,0.322l0.208,0.447l-0.035,2.342
		l-0.078,0.493l-0.017,0.493l0.074,0.436l0.204,0.309l0.251,0.243l0.312,0.223l0.338,0.177h0.433l0.403-0.079h0.433l0.334,0.263
		l0.147,0.453l0.043,0.712l-0.676,0.683l-11.056-2.683l-17.277-6.368l-0.667-0.388l-12.771-20.053l-1.482-3.067l-0.121-0.447
		l-0.126-1.101l-0.186-0.743l-0.303-0.428l-0.399-0.303l-1.629-0.803l-5.463-3.544l-0.013-0.02l-0.017-0.02l-0.191-0.263
		l-0.165-0.316l-0.459-1.292l-0.234-0.454l-0.866-1.277l-0.381-0.792l-0.143-0.441l-0.074-0.434l-0.013-0.507l0.065-0.489
		l0.13-0.487l1.23-2.332l0.516-0.651l0.923-0.849l0.269-0.351l0.195-0.408l0.091-0.48l-0.004-0.5l-0.065-0.5l-0.351-0.72
		l-2.014-2.549l-1.776-1.067l-0.983-0.204l-0.637-0.072h-0.477l-1.646-0.434l-2.3,0.448l-0.845,0.625l-0.217,0.355l-0.36,0.858
		l-0.472,1.883l-0.494,0.917l-0.468,0.336l-0.598,0.125l-0.633,0.046l-0.944,0.395l-0.468,0.382l-1.521,2.115l-1.685,1.944
		l-0.923,0.73l-0.745,0.342l-0.455-0.118l-0.394-0.197l-0.351-0.257l-0.598-0.619l-0.477-0.673l-0.416-0.73l-0.685-1.823
		l-0.295-0.608l-0.477-0.711l-0.884-0.836l-0.494-0.224l-0.659-0.127h-1.161l-0.645,0.14l-0.503,0.204l-0.308,0.25l-0.251,0.316
		l-0.191,0.395l-0.113,0.434l0.017,0.467l0.108,0.434l0.732,1.582l-0.139,0.608l-0.494,0.77l-1.473,1.264l-0.862,0.493l-0.758,0.259
		l-7.135-0.516l-0.472-0.158l-0.321-0.184l-0.624-0.579l-0.975-1.092l0.091-0.812l0.658-0.546l-3.006-0.402l0.693-2.385l-0.03-0.5
		l-0.143-0.654l-0.667-1.191l0.078-1.161l0.962-4.83l0.087-1.389l-0.169-0.865l-0.334-0.257L300.66,153l-0.225-0.336l-0.303-0.283
		l-1.204-2.202l-0.992-3.508l-0.299-1.594l-0.035-1.082l0.728-1.113l0.126-0.714l-0.16-0.632l-0.364-0.968l-0.1-0.555l0.022-0.342
		l0.195-0.303l0.264-0.25l0.225-0.356l0.169-0.448l0.195-1.017l0.152-0.461l0.264-0.323l0.368-0.211l0.411-0.165l0.399-0.356
		l0.338-0.556l0.334-1.12l0.052-0.712l-0.108-0.553l-0.225-0.233l-0.498-0.323l-1.152-0.969l-0.732-1.015l-0.524-0.51l-1.529-0.903
		l0.992-4.15l0.52-1.463l0.23-0.365l1.274-1.595l0.165-0.688l0.121-0.989l0.273-0.593l0.39-0.464l0.559-0.468l0.078-0.409
		l-0.126-0.356l-0.256-0.415l-0.208-0.475l-0.043-0.833l0.269-0.58l0.442-0.725l0.156-0.569l-0.017-0.494l-0.217-0.369l-0.347-0.284
		l-0.806-0.514l-0.329-0.488l0.069-0.787l0.407-1.345l0.243-1.644l0.303-0.851l0.347-0.569l0.398-0.435l0.494-0.805l0.03-0.528
		l-0.108-0.444l-0.477-0.666l-0.212-0.376l-0.516-2.119l-0.208-0.534l-0.264-0.409l-0.308-0.257l-0.334-0.224l-0.36-0.369
		l-0.355-0.53l-0.65-1.616l-0.29-0.464l-0.338-0.277l-0.411-0.204l-0.494-0.106l-0.507-0.033l-10.653,0.343l-0.529-0.106
		l-0.503-0.172l-0.416-0.376l-0.035-0.402l0.13-0.403l1.451-2.219l0.65-0.768l1.78-1.656l0.195-0.477l0.23-0.732l-0.009-0.673
		l0.169-1.091l0.351-0.818l0.711-1.115l0.273-0.702l0.048-0.667l-0.078-0.416l-0.654-0.781l0.983-1.261l1.499-0.752l2.266-0.376
		l1.122,0.092l3.137-0.57l0.866,1.593l0.983,0.891l0.914,0.491l0.671,0.224l0.632,0.106l0.516-0.02l0.936-0.158l3.336-1.078
		l6.827-3.732l0.312-0.26l0.269-0.29l0.052-0.436l-0.225-1.459l0.043-1.059l0.381-1.851l-0.113-0.528l-2.634-0.786l-0.507-0.396
		l-0.715-0.715l-0.195-0.568l-0.082-0.542l0.043-0.522l0.225-1.092l-0.022-0.667l-0.338-1.383l-0.576-0.885l-1.434-3.041
		l-1.012-0.996l0.362-2.741l0.364-0.628l0.55-0.656l0.429-0.751l0.013-0.923l-0.52-0.625l-0.892-0.385l-0.923-0.282l-0.624-0.326
		l-1.066-1.663l-0.147-1.458l0.819-2.743l0.416-3.88l-0.234-0.685l-0.303-0.59l-0.156-0.725l0.178-1.571l0.399-1.596l0.191-0.07
		l1.178-2.006l-0.108-0.278l1.85-0.613l1.1,0.71l1.707,2.947l1.261,1.157l1.72,1.175l3.396,1.829l1.356,0.467l4.562,0.91l1.759,0.11
		l2.053-0.37l1.568-1.069l0.299-1.992l-0.624-0.8l-1.04-0.498l-0.975-0.619l-0.433-1.173l0.156-3.346l0.585-1.55l1.443-0.708
		l1.824-0.097l1.72,0.278l2.166,0.07l1.633-0.771l1.564-1.082l1.975-0.862L341.867,30l0.849,0.489l0.117,1.184l-0.42,3.52
		l0.238,0.681l1.581,0.577l0.91,0.492l0.762,0.644l0.282,0.677l-0.446,1.012l-0.84,0.502l-0.914,0.421l-0.667,0.763l0.485,1.183
		l0.238,1.029l-0.113,1.007l-0.55,0.707l-1.534,1.254l-0.394,0.69l-0.03,1.284l0.442,0.212l0.702-0.189l0.754,0.093l0.433,0.441
		l0.446,0.597l0.481,0.507l0.568,0.172l0.962-0.15l0.676-0.027l0.49,0.302l0.377,0.837l-0.143,0.505l-0.897,1.535l-0.182,0.736
		l0.29,0.819l1.369,1.614l-1.265,2.643l-0.26,1.568l1.243,1.02l-2.045,2.29l0.043,0.295l0.204,0.502l0.117,0.561l-0.182,0.445
		l-0.689,0.258l-0.568-0.218l-0.399-0.352l-0.204-0.137l-1.035,1.152l-0.221,1.156l0.277,3.159l1.274-0.264l0.905,0.612l1.651,2.016
		l1.126,0.711l6.334,2.263l7.495-0.051l1.577-1.56l0.996-1.627l0.58-1.818l0.299-2.131l0.983-0.775l3.908,1.372l0.979-0.738
		l-0.355-4.667l0.346-1.552l0.966-1.427l1.278-0.94l6.017-3.189l10.791-2.39l4.674-0.463l2.326-0.597l0.81-0.026l1.061,0.372
		l1.845,1.214L403.349,55.669z"/>
	<path class="st0" d="M143.793,389.045l2.062-2.62l0.399-0.183l1.009-0.166l0.386-0.238l0.178-0.362l0.377-1.175l-0.091-0.131
		l0.091-0.026l1.395-0.778l0.195,0.009l1.139-1.376l6.056-4.817l1.649-1.848l0.561,0.229l8.214,5.284l0.78,0.32l0.615,0.02
		l0.927-0.667l0.676-0.334l1.066-0.373l0.563-0.091l2.036-1.605l0.615-0.307l0.069-0.517l-0.017-0.408l-0.069-0.445l0.052-0.464
		l0.173-0.549l-0.026-0.471l-0.178-0.689l0.204-0.183l0.88,0.131l0.438-0.072l0.399-0.118l0.849-0.137l0.295-0.222l-0.035-0.582
		l-0.554-1.173l-0.087-0.334l0.269-0.484l1.681-1.036l0.503-0.02l0.195,0.257l0.039,0.36l0.173,0.321l0.307,0.19l0.481-0.046
		l0.507-0.327l0.654-0.663l0.355-0.923l0.299-1.717l0.026-0.838l0.178-0.353l0.966-0.72l0.464-0.657l0.49-0.229l0.979-0.576
		l0.775-0.628l0.667-0.366l0.507-0.192l0.347-0.209l0.056-0.517l-0.797-2.057l-0.217-0.281l-0.303-0.052l-0.269-0.079l-0.134-0.314
		l0.013-0.425l0.147-0.532l0.684-1.427l0.364-1.121l-0.26-0.583l0.104-0.268l0.637-0.275l0.464-0.295l0.373-0.53l0.212-0.432
		l0.256-0.258l0.429,0.118l0.689-0.157l0.953-0.504l3.305-3.177l1.88-0.648l2.162,0.93l0.407,0.255l0.68,0.511l1.772,1.639
		l0.719,0.452l0.624,0.275l1.174,0.196l2.032,0.578l0.628,0.347l0.42,0.373l0.385,0.785l0.953,2.679l0.36,0.55l0.775,0.742
		l1.204,0.255l1.378,0.111l14.006-0.196l1.131-0.236l0.342-4.403l0.147-0.589l1.048-1.953l5.398-0.827l8.846-0.039l0.858-0.131
		l2.383-0.648l7.872-1.309l1.139,0.026l0.511,0.052l2.842,0.694l6.429-0.681l0.875,0.033l0.394,0.196l2.058,1.394l1.23,0.513
		l3.942,0.681l0.58,0.026l1.239,1.861l-0.156,0.858l-0.321,0.419l-0.32,0.517l-0.381,0.925l0.009,0.674l0.147,0.661l0.373,0.742
		l0.312,0.465l0.338,0.353l0.381,0.196l1.69,0.609l0.529,0.434l0.611,0.589l1.061,1.315l0.468,0.82l0.373,0.995l1.43,7.217
		l-0.052,0.491l-0.1,0.46l-0.156,0.419l-0.195,0.393l-0.186,1.125l0.247,2.41l-2.621,4.027l-0.286,1.454l0.281,0.327l0.762,0.615
		l-0.65,0.065l-2.257,0.53l-0.403,0.17l-1.326,0.774l-0.199,0.203l-1.083,1.596l-0.286,0.303l-0.329,0.249l-0.364,0.183
		l-0.372,0.092l-0.581,0.242l-0.667,0.438l-0.944,0.8l-0.433,2.651l0.39,11.158l1.122,16.54l0.936,3.599l0.394,7.521l-1.048,26.009
		l-25.616,4.98l-1.538,0.315l-1.096-2.208l-1.547-6.604l0.078-3.091l0.546-3.557l-0.377-2.922l-2.686-1.174l-0.26,2.5l-0.416,1.383
		l-0.65,0.642l-0.797-0.498l-0.412-1.187l-0.568-1.1l-1.3-0.235l0.277-1.417l-0.622,0.253l-1.038,0.878l-0.97,0.47l-0.598-0.327
		l-1.109-1.4l-0.646-0.542l0.68-0.878l-0.424-0.549l-1.811-0.795l-0.23-0.048l-1.729-0.947l-0.126-0.309l-1.486-0.227l-1.239-0.995
		l-0.914-1.065l-0.542-0.438l-0.927,1.113l-0.979,1.673l-1.17,0.601l-1.49-2.097l-1.022-1.008l-3.31-1.734l-1.092-1.374
		l-0.087-0.612l0.061-2.396l0.186-0.388l0.767-0.425l0.178-0.449l-0.191-0.538l-0.429-0.218l-0.451-0.135l-0.269-0.301l-0.273-1.921
		l-0.334-0.773l-0.814-0.749l-0.754-0.052l-1.048,0.283l-0.806,0.431l-0.035,0.394l-0.914-1.174l-0.225-1.703l0.208-1.913
		l0.39-1.771l1.109-3.253l-0.208-1.14l-1.3-1.595l-3.726-3.003l-0.29-0.403l-0.221-0.983l-0.143-0.279l-0.518-0.174l-0.392,0.109
		l-0.36,0.148l-0.451-0.057l-5.407-1.288l-1.369-0.935l-1.451-0.336l-2.27,0.052l-3.899,0.545l-0.979,0.403l-1.871,1.039
		l-1.152,0.283l-1.36,0.017l-0.71-0.24l-0.559-0.421l-0.91-0.532l-0.999-0.37l-6.496-1.478l-0.762-0.279l-0.126-0.349v-0.582
		l-0.095-0.691l-0.42-0.68l-0.611-0.336l-0.351,0.261l-0.277,0.384l-0.407,0.044l-0.888-0.802l-0.81-0.926l-0.866-0.347
		l-1.092,0.926l-0.888-0.392l-1.027-0.031l-1.027,0.392l-0.901,0.878l-0.996-1.009l0.297-0.514l0.769-0.429l0.42-0.765l-0.191-0.647
		l-0.754-1.541l-0.152-0.798l0.433-1.395l0.619-0.536l0.117-0.488l-1.105-1.256l-2.63-1.41l-0.97-1.262l-0.529-0.353l-0.407,0.711
		l-0.381,1.561l-0.659,1.567l-1.044,0.861l-1.542-0.525l-2.491-3.342l-0.936-0.828l-0.97-0.286l-2.014,0.061l-0.817-0.174
		L143.793,389.045z"/>
	<path class="st0" d="M245.135,471.605l-0.849-0.818l0.546,0.026l1.664-0.098l-1.131-1.467l-0.403-1.597l0.572-1.014l1.759,0.289
		l-1.053-1.358l-1.785-3.594l1.538-0.315l25.616-4.98l1.048-26.009l-0.394-7.521l-0.936-3.599l-1.122-16.54l-0.39-11.158
		l0.433-2.651l0.944-0.8l0.667-0.438l0.581-0.242l0.372-0.092l0.364-0.183l0.329-0.249l0.286-0.303l1.083-1.596l0.199-0.203
		l1.326-0.774l0.403-0.17l2.257-0.53l0.65-0.065l2.833,2.435l0.693,1.52l0.152,0.955l0.03,0.695l-0.03,0.582l-0.117,0.425
		l-0.191,0.288l-0.312,0.209l-0.827,0.249L281.495,391l-0.442,0.229l-0.381,0.31l-0.377,0.654l0.017,0.464l1.711,4.386l9.695,11.681
		l1.204,0.824l0.953,0.262l12.043-0.072l0.815-0.176l0.884-0.503l6.247-4.672l0.685-0.392l0.944,0.359l4.172,2.539l1.49,0.471
		l1.434-0.013l5.146-2.101l2.062-0.34l1.057,12.982l1.07,4.002l1.642,4.494l1.646,2.936l0.524,0.629l0.49,0.47l0.191,0.157
		l0.017,0.013l0.009,0.007l1.096,0.98l0.663,0.786l0.407,0.64l0.654,1.257l0.264,0.738l0.152,0.673l0.416,4.721l0.256,0.793
		l0.282,0.516l0.654,0.542l0.351,0.235l0.398,0.497l0.446,0.747l2.521,5.582l4.835-1.367l1.958-0.046l0.628,0.261l1.993,1.243
		l0.329,0.47l0.71,1.57l1.833,1.515l0.268,0.316l0.169,0.385l0.074,0.424l-0.147,0.927l-0.026,0.503l0.147,0.557l0.325,0.281
		l0.438,0.176l0.217,0.261l0.243,0.94l0.546,0.916l0.455,0.503l0.329,0.477l0.316,0.359l0.866,1.4l-0.043,0.849l-0.126,0.427
		l-0.186,0.359l-0.121,0.411l0.009,0.444l0.108,0.942l0.169,0.385l0.191,0.346l0.156,0.379l0.373,1.713l0.208,0.366l0.251,0.32
		l0.533,0.568l0.351,0.477l0.312,0.27l0.503,0.287l0.858,0.359l0.364,0.437l0.243,0.464l0.217,0.307l1.317-0.183l10.484-3.58
		l7.113,23.879l-0.736,5.381l-6.741,1.705l-0.81,0.352l-0.697,0.457l-0.84,0.874l-0.295,0.505l-0.29,0.659l-0.368,1.34l-0.043,1.031
		l1.144,8.34l0.06,0.249l-9.451,2.951l-1.426,0.736l-0.6,0.767l-0.993-0.041l-4.383,1.637l-6.611,3.414l-22.94,7.686l-0.716,0.568
		l-0.491,1.273l-1.248,0.678l-8.859,2.18l-1.733,0.205l-1.341,0.435l-2.255,2.156l-1.347,0.856l-10.605,3.135l-8.412,0.565
		l-2.166,1.068l-1.982,0.496l-0.924,0.53l-2.343,2.871l-4.516,3.792l-5.216,3.152l-3.435,1.051l-6.225,0.65l-4.977,2.142
		l-1.04,0.705l-0.839,1.632l-0.904,0.161l-1.044-0.014l-0.812,0.274l-1.497,1.266l-4.513,2.47l-6.611,5.474L241.201,570
		l-2.019-0.174l-3.643-0.718l-1.37,0.154l-2.775-1.896l-0.455-0.988l0.113-0.852l0.875-1.569l0.26-0.832l-0.117-0.789l-0.598-1.697
		l0.16-2.129l-0.152-0.876l-0.225-0.776l-0.121-0.756l0.368-18l-0.368-4.369l-0.225-0.756l-0.503-0.611l-0.658-0.496l-0.637-0.606
		l-0.42-0.972l0.002-0.099l0.011-0.654l0.472-1.739l0.117-0.95l-0.598-2.6l0.039-0.794l2.56-2.031l1.105,0.117l0.697,0.498
		l0.329,0.03l-0.004-1.276l-0.481-1.631l-0.78-1.107l-0.585-1.161l0.117-1.809h-0.013l-0.654-4.869l0.199-1.459l1.053-1.522
		l1.373-0.635l1.419,0.026l1.18,0.47l2.257-4.112l0.494-1.479l0.065-1.416l-0.689-3.967l0.884-2.775l0.355-0.764l0.624-0.776
		l2.166-1.173l0.208-0.235l0.957,0.17l-0.134,0.328l-0.425,0.418l0.091,0.439l0.269,0.55l0.004,0.635l0.195,0.324l0.814-0.363
		l0.42-0.526l0.308-1.386l0.204-0.563l1.014-1.425l0.49-0.872l0.078-0.946l-0.221-1.625l-0.459-1.579l-0.624-0.131l-0.879,0.17
		l-1.243-0.701l-0.788-1.138l-0.581-1.44l-0.329-1.504l-0.022-1.342l1.174,0.622l0.377-0.892l-0.056-3.17l0.607-1.229l0.979-0.786
		l0.446-0.698L245.135,471.605z"/>
	<path class="st0" d="M411.251,506.507l-5.647,0.302l-2.442-0.38l-2.156-1.277l-2.34,1.719l1.74,0.514l0.6,0.062l-6.682,2.062
		l-18.533,2.798l-0.618,0.192l-0.06-0.249l-1.144-8.34l0.043-1.031l0.368-1.34l0.29-0.659l0.295-0.505l0.84-0.874l0.697-0.457
		l0.81-0.352l6.741-1.705l0.736-5.381l-7.113-23.879l-10.484,3.58l-1.317,0.183l-0.217-0.307l-0.243-0.464l-0.364-0.437
		l-0.858-0.359l-0.503-0.287l-0.312-0.27l-0.351-0.477l-0.533-0.568l-0.251-0.32l-0.208-0.366l-0.373-1.713l-0.156-0.379
		l-0.191-0.346l-0.169-0.385l-0.108-0.942l-0.009-0.444l0.121-0.411l0.186-0.359l0.126-0.427l0.043-0.849l-0.866-1.4l-0.316-0.359
		l-0.329-0.477l-0.455-0.503l-0.546-0.916l15.474-18.264l3.847-3.526l0.659-0.078l0.771-0.261l1.144-0.777l0.472-0.577l0.29-0.568
		l0.121-1.568l-0.121-1.525l2.313-4.304v-0.778l-0.416-1.793l-0.347-3.067l0.503-1.812l2.352-4.756l18.745,2.479l16.15-5.665
		l1.837,0.281l3.882,1.052l5.723,5.451l3.392,1.372l8.595,1.02l1.256,0.434l0.866,0.771l0.321,1.773l0.394,10.366l1.014,6.533
		l4.146,7.891l-4.644,12.001l-0.173,0.694l0.074,0.424l0.169,0.366l0.442,0.686l0.771,1.471l0.147,0.438l0.372,1.785l-0.017,1.051
		l-0.199,1.158l-0.91,3.09l-5.303,12.742l-0.277,0.907l-0.091,0.64l-0.03,0.594l0.147,1.993l-0.035,0.509l-0.087,0.479l-2.963,6.491
		l-0.386,0.537l-0.333,0.346l-0.338,0.268l-0.485,0.143l-0.607-0.007l-0.936-0.333l-1.196-0.92l-0.78-0.139h-1.139l-5.237,0.439
		l-0.793,0.359l-0.007,0.013l-0.149-0.204h-0.522l-0.921,0.959l-1.494-0.445l-1.596-0.702l-1.249,0.188h-0.515l-0.887-0.397
		l-0.481,0.349l-0.078,0.808l0.355,1.014l-0.259-0.092l-0.941-0.476l0.044,0.884l-0.044,0.26l0.689-0.195l0.13,0.257l0.339,0.507
		l-0.127-0.036l-1.187-0.548l-0.936-0.635l-4.35-3.709l-0.754-0.411l-0.901-0.3l-1.066-0.172l-0.611,2.227L411.251,506.507z"/>
	<path class="st0" d="M419.956,498.767l0.043,0.059l0.587-0.339l0.457-0.137l1.187-0.151v0.627l-0.641,0.716l-1.965,0.973
		l-0.826,0.555v-1.668l-1.194,3.49l-0.573,1.11l-2.811-4.076h-0.628l-0.034,0.26l0.034,0.884l-1.136-0.575l1.252,2.384l3.445,1.555
		l4.114,0.452l3.305-0.884l-1.347-1.021l-1.416,0.027l-1.491,0.236l-1.521-0.394v-0.572l0.853,0.051l0.686-0.11l0.617-0.233
		l0.651-0.342l0.447-0.363l1.057-1.103l0.317-0.254l1.252,0.281l1.385,0.699l1.354,0.346l1.163-0.757l1.027,0.63l1.023,0.226
		l0.856-0.346l0.525-1.079l-1.535,0.226l-0.675-0.678l-0.566-0.891l-1.228-0.384v-0.575l1.146,0.575l2.797-0.401l5.083,2.976
		l2.163-0.569l1.177-0.928l1.105-0.185l2.896,0.308l0.341,0.637l0.478,1.449l0.716,1.552l1.044,0.962l-21.204,0.641l-3.264,1.264
		l-11.235,0.602l-1.226-11.324l0.611-2.227l1.066,0.172l0.901,0.3l0.754,0.411l4.35,3.709l0.936,0.635l1.187,0.548L419.956,498.767z
		 M569.657,501.59l-7.816-1.665l-3.902-0.233l-2.647-0.527l-0.662-0.219l-0.286-0.432l0.15-0.781l0.198-0.596l-0.136-0.576
		l-0.836-0.712l0.624-1.096l-0.86,0.712l-0.669,1.089l-0.467,1.212l-0.235,1.058h-0.628l-1.003-0.579l-1.624-0.164l-3.408,0.116
		l-1.122-0.301l-3.769-2.048l-5.864-0.764l-2.62-0.791l-1.249-1.898l1.556,0.521l1.767-0.178l1.549-0.788l0.911-1.274l1.218,1.511
		l0.6,0.599l0.703,0.243l0.549-0.216l0.225-0.5l-0.099-0.589l-0.392-0.48v-0.569l1.156,0.257l2.896,1.189l0.576,0.014l0.853-0.274
		l1.886,0.737l3.039,1.627l-0.198-0.541l-0.143-0.839l-0.232-0.449l1.303,0.038l2.251,0.308l0.918-0.346l1.105-1.329l-0.522-0.733
		l-1.078-0.634l-0.594-1.011l-0.962-2.802l-0.184-1.223l-0.283-0.661l-0.699-0.449l-0.914-0.106l-0.907,0.332l-0.549-0.367
		l-0.788-0.233l-0.703,0.13l-0.307,0.754l0.246,0.476l1.787,1.278l2.122,2.864l1.262,1.35l1.453,0.644l-0.75,1.089l-1.296-0.117
		l-1.412-0.308l-1.064,0.534h-0.631l-1.047-1.271l-0.785-0.329l-0.866,0.041l-1.31-0.164l-0.887-0.312l-0.989-0.569l-0.771-0.826
		l-0.212-1.113l-0.399,0.373l-0.501,0.374l-0.239,0.349l-0.348-0.692l-0.225-0.658l-0.102-0.706l0.044-0.87h-0.57l-0.116,1.185
		l-0.409,1.018l-0.703,0.504l-1.006-0.356l-0.651,0.493l-0.914,0.14l-0.996-0.168l-0.928-0.466l-1.958,0.305l-0.955,0.271
		l0.815,0.757l1.31,0.312l1.388-0.086l1.064-0.462l1.19,1.203l-1.115,0.863l-1.44,0.832l-1.515,0.329l-1.385-0.617l-1.051-0.606
		l-1.835-0.822l-1.75-0.517l-0.781,0.25l-0.696,0.74l-1.542-0.411l-2.395-1.244l-1.112,0.339l-0.894,0.576l-0.901,0.267
		l-1.153-0.555l-0.484,0.49l-0.546,0.007l-0.594-0.397l-0.611-0.726l-2.282,1.548l-1.112,0.432l-1.235-0.254l0.167-0.384
		l0.242-0.966l0.164-0.377l-2.149-0.418l-0.928,0.158l-0.982,0.887l-0.624-0.576l-0.757-0.37l-0.638,0.021l-0.518,1.326l-1.33,1.062
		l-0.655,0.836l-0.6-0.617l-1.006-0.774l-1.074-0.658l-0.764-0.25l-0.88,0.476l-0.88,0.781l-0.873,0.295l-0.846-0.976l0.252-0.188
		l0.102-0.021l0.082-0.062l0.184-0.305l-3.104,0.147l-1.187,0.582l-0.334,1.569l0.798-0.404l0.703,0.116l0.536,0.548l0.307,0.894
		l-1.596-0.37l-5.953-0.264l-0.327-0.802l-0.403-0.713l-0.935-1.305l-0.478,0.805l-0.031,0.665l0.348,0.507l0.675,0.322v0.521
		l-1.511,0.295l-1.146,0.541l-1.924,1.521l-1.549-1.014l-1.791,0.117l-1.559,0.712l-0.815,0.76h-0.577l-0.559-0.247l-0.723-0.445
		l-0.648-0.528l-0.358-0.507l0.979-0.439l0.819,0.096l0.914,0.274l1.242,0.069l-0.177-0.815l-0.266-0.521l-0.464-0.281l-0.757-0.11
		v-0.63l0.86-0.391l0.546-0.596l0.259-0.805v-1.024h-0.515l-1.034,1.939l-1.402,1.035l-1.77,0.404l-2.149,0.069l2.272,1.72
		l-1.678,1.49l-3.118,1.319l-2.05,1.219l-0.522,1.219l0.123,0.795l0.757,0.504l1.358,0.353l1.501,0.082l1.491-0.254l0.856-0.589
		l-0.416-0.908v-0.627l2.118-0.575l1.04-0.582l0.372,0.387l0.413,0.551l0.689,0.219l1.037-0.26l1.699-0.736l1.269-0.147h2.606
		l0.791,0.168l0.532,0.37l0.362,0.39l0.287,0.216l1.245,0.175l0.87-0.123l1.944-0.627l-0.867,0.103l-1.016-0.082l-0.798-0.384
		l-0.225-0.781l0.512-0.438l2.917-0.712v1.151h0.624l1.852-0.901l4.943,0.308l2.415-1.134l0.399,1.254l0.652-0.51l0.689-1.168
		l0.546-0.726l1.535,0.041l1.307,0.617l1.167,0.295l1.095-0.952l1.583,0.641l1.637-0.277l1.678-0.603l3.442-0.617l2.149-1.22
		l1.32-0.281l10.343-0.267l2.62,0.897l-0.785,0.363l-0.839,0.185l-0.89,0.041l-0.924-0.069l6.242,2.932l-26.187,2.144l-26.187,2.144
		l-13.76,3.096l-7.603,0.651l-1.45,0.637l-0.907-0.479l-0.982-0.171l-4.52-0.086l-1.081,0.106v-0.521l0.273-0.021l0.553,0.044
		l0.266-0.024v-0.572l-2.354,0.031l-0.563-0.997l0.041-1.531l-0.556-1.582l1.078-1.281l-1.064-0.274l-4.571,0.576l-1.497,0.473
		l-1.388,0.743l-1.139,0.966l-1.402-1.213l-2.419-1.223l-2.811-0.589l-2.531,0.678l-0.324-0.363l-0.577-0.445l-0.144-0.193
		l0.007-0.013l0.793-0.359l5.237-0.439h1.139l0.78,0.139l1.196,0.92l0.936,0.333l0.607,0.007l0.485-0.143l0.338-0.268l0.333-0.346
		l0.386-0.537l2.963-6.491l0.087-0.479l0.035-0.509l-0.147-1.993l0.03-0.594l0.091-0.64l0.277-0.907l5.303-12.742l0.91-3.09
		l0.199-1.158l0.017-1.051l-0.372-1.785l-0.147-0.438l-0.771-1.471l-0.442-0.686l-0.169-0.366l-0.074-0.424l0.173-0.694
		l4.644-12.001l-4.146-7.891l-1.014-6.533l-0.394-10.366l-0.321-1.773l-0.866-0.771l-1.256-0.434l-8.595-1.02l-3.392-1.372
		l-5.723-5.451l2.465-6.844l0.191-2.225l-0.139-0.53l-0.082-2.938l1.46-1l0.386-0.179h0.511l0.71,0.316l12.888,10.554l1.521,0.869
		l2.812,0.447l2.248,0.052l0.797-0.111l5.129-1.532l0.702-0.052l1.196,0.105l1.291,0.294l0.399,0.15l0.737,0.196l0.451,0.072
		l0.797,0.281l2.634,0.137l2.413-0.164l1.945-0.863l2.045-2.428l19.997,4.894l-16.44,30.845l16.553,10.703l2.045,4.325l-0.373,1.289
		l0.806,0.98l1.317,0.929l3.947,2.216l2.474,1.091l2.708,0.117l31.542-1.724l0.893-0.858l0.152-0.594l0.056-0.555l-0.546-9.471
		l1.711-2.497l1.252-0.57l0.676-0.157l0.97-0.392l1.048-0.895l3.522-3.695l6.147-3.976l0.754-0.274l0.663-0.118l0.542,0.078
		l21.024,5.781l-0.022,0.549l0.225,2.034l0.615,0.908l0.923,0.531l1.07,0.803l1.291,1.661l0.351,0.699l-0.052,0.418l-0.347,0.692
		l-0.966,1.06l-0.251,0.627l-0.451,6.641l0.087,0.868l0.338,0.366l0.416,0.218l0.333,0.222l0.256,0.34l0.182,0.379l0.147,0.718
		l0.424,3.752l0.208,0.659l0.173,0.372l0.143,0.437v0.668l-0.113,0.836l-0.771,2.261l-1.555,3.514l-0.247,0.916l-0.056,2
		l0.589,6.009l-0.671,3.751v0.483l0.048,0.476l0.104,0.431l0.147,0.394l0.23,0.339l0.264,0.3l1.59,1.325l0.277,0.307l0.238,0.328
		l0.16,0.378l0.117,0.411l0.035,0.483l-2.127,1.868l-9.301,4.852L569.657,501.59z"/>
	<path class="st0" d="M274.234,352.186l-0.169-1.737l-0.004-0.943l0.394-2.667l1.469-4.81l0.277-1.194l-0.117-1.281l-3.223-7.751
		l0.048-0.895l0.581-2.88l-0.212-0.788l-0.368-0.897l-0.16-0.934l0.424-0.895l0.516-1.467l-0.156-2.072l-0.771-4.217l-0.347-0.891
		l-0.074-0.559l0.178-0.511l0.394-0.229l0.394-0.155l0.442-0.741l0.572-0.662l0.572-0.826l0.26-0.941l0.771-1.169l1.633-0.561
		l1.443-0.928l0.208-2.276l-0.342-0.498l-1.131-0.66l-0.243-0.31l0.087-0.503l0.199-0.232l0.199-0.155l0.087-0.267l-0.087-0.865
		l-0.485-2.021l0.723-1.095l1.495-0.697l1.243-0.885l-0.026-1.68l-0.672-0.531l-1.819-0.229l-0.771-1.49h-0.936l-1.837,0.573
		l-0.563-0.763l-0.918-3.707l-0.55-1.359l0.433-0.778l0.221-0.855l0.043-0.92l-0.069-0.964l2.01-2.114l1.845-1.117l2.383-0.544
		l30.75-1.819l12.468,3.631l1.915,0.144l2.526-0.118l12.503-3.012l2.578,0.105l1.014,2.245l0.953,1.6l0.165,0.409l0.126,0.459
		l0.299,2.612l0.372,0.485l0.763,0.525l3.175,1.327l2.227,0.695l1.408,0.918l1.495,2.12l-16.349,9.061l-1.144,0.933l-0.901,1.881
		l-0.602,2.139l-1.048,1.962l-4.453,6.749l-4.007,8.012l0.186,1.764l1.915-0.74l0.918-0.507l1.053-0.321l0.784,0.105l0.793,0.67
		l0.619,0.688l0.516,0.701l0.546,0.428l0.758,0.327l1.248,0.059l2.82,0.517l2.27,0.026l1.72-0.177l1.702-0.426l0.52-1.194
		l0.186-1.29l-0.017-2.402l0.091-0.465l0.256-0.321l0.797-0.321l0.511-0.079l1.135-0.026l1.638,0.17l3.739,0.945l0.654,0.865
		l0.407,1.14l0.199,0.354l0.295,0.277l0.529,0.275l2.209,0.812l3.83,2.059l0.996,0.406l1.577,1.234l0.277,0.124l2.088,0.288
		l3.318,1.594l-0.897,1.035l-0.221,0.354l-0.169,0.648l-0.628,0.262l-1.109,0.216l-2.387,0.205l-1.841,0.321l-15.093,9.765
		l-1.066,1.126l-0.446,1.436l-0.186,1.447l-0.104,2.911l0.178,1.689l0.481,1.887l3.059,6.277l0.178,1.414l0.035,2.864l0.667,3.11
		l3.249,4.342l2.911,4.034l-0.321,2.054l0.555,2.896l4.025,4.217l-0.866,5.086l-0.736,2.086l-2.019,3.895l-0.684,0.896l-0.537,0.362
		l-0.65-0.44l-1.542-0.817l-0.407-0.17l-0.42-0.092l-0.403,0.039l-0.351,0.19l-4.882,4.091l-0.754,0.412l-0.905,0.183l-4.215-0.301
		l-1.191,0.164l-1.451,0.34l-2.547,1.068l-3.071,0.824l-2.474,0.32l-2.062,0.34l-5.146,2.101l-1.434,0.013l-1.49-0.471l-4.172-2.539
		l-0.944-0.359l-0.685,0.392l-6.247,4.672l-0.884,0.503l-0.815,0.176l-12.043,0.072l-0.953-0.262l-1.204-0.824l-9.695-11.681
		l-1.711-4.386l-0.017-0.464l0.377-0.654l0.381-0.31l0.442-0.229l0.446-0.085l0.827-0.249l0.312-0.209l0.191-0.288l0.117-0.425
		l0.03-0.582l-0.03-0.695l-0.152-0.955l-0.693-1.52l-2.833-2.435l-0.762-0.615l-0.281-0.327l0.286-1.454l2.621-4.027l-0.247-2.41
		l0.186-1.125l0.195-0.393l0.156-0.419l0.1-0.46l0.052-0.491l-1.43-7.217l-0.373-0.995l-0.468-0.82l-1.061-1.315l-0.611-0.589
		l-0.529-0.434l-1.69-0.609l-0.381-0.196l-0.338-0.353l-0.312-0.465l-0.373-0.742l-0.147-0.661l-0.009-0.674l0.381-0.925l0.32-0.517
		l0.321-0.419l0.156-0.858L274.234,352.186z"/>
	<path class="st0" d="M549.862,377.712l0.494,0.948l1.083-0.36l1.204-0.216l1.863,0.039l0.429-0.039l1.209-1.409l0.797-0.445
		l0.858,0.7l0.182,1.09l-0.65,2.449l-0.052,1.071l0.321,0.56l1.048,0.815l0.346,0.353l0.199,0.641l0.234,1.397l0.399,0.58
		l0.386,0.815l0.498,3.82l-0.182,0.567l-0.416,0.48l-0.411,0.388l-0.186,0.294l0.095,0.641l0.217,0.484l0.217,0.353l0.095,0.251
		l0.347,0.543l1.655,1.65l0.55,0.347l0.884,4.082l1.776-0.275l1.573,0.514l1.343-0.039l1.083-1.927l3.496,3.925l1.91,2.811
		l1.213,3.428l0.563,0.8l-0.121,0.458l-1.646,0.146l-0.477,0.331l0.182,0.693l0.407,0.63l0.433,0.264l0.581,0.898l0.459,0.954
		l-0.13,0.314l0.949,0.111l0.42-1.383l0.918-0.506l1.083,0.549l1.399,2.904l0.667,0.68l0.286,4.266l-0.533,1.03l-1.122,0.725
		l-1.027,0.926l-0.234,1.636l0.494-0.227l1.326-0.349l-0.173,0.388l-0.277,0.939l-0.173,0.399l1.356,0.76l0.88,1.392l0.121,1.697
		l-0.923,1.673l-0.775,0.412l-0.867,0.17l-0.697,0.314l-0.29,0.83l-0.069,1.1l-0.208,0.928l-2.712,5.222l-0.346,1.487l-0.074,1.701
		l-21.024-5.781l-0.542-0.078l-0.663,0.118l-0.754,0.274l-6.147,3.976l-3.522,3.695l-1.048,0.895l-0.97,0.392l-0.676,0.157
		l-1.252,0.57l-1.711,2.497l0.546,9.471l-0.056,0.555l-0.152,0.594l-0.893,0.858l-31.542,1.724l-2.708-0.117l-2.474-1.091
		l-3.947-2.216l-1.317-0.929l-0.806-0.98l0.373-1.289l-2.045-4.325l-16.553-10.703l16.44-30.845l2.591-4.391l0.364-0.235
		l0.468-0.052l0.598,0.431l0.329,0.392l0.238,0.447l0.338,0.817l0.264,0.301l0.312,0.281l1.139,0.588l2.062,1.375l0.628,0.556
		l0.342,0.242l0.533,0.251l2.807,0.667l2.781,0.974l1.802,0.386l0.407,0.229l1.819-0.405l6.702-3.715l0.152-1.198l-0.017-1.085
		l-0.121-0.466l-0.346-0.804l-0.399-1.807l0.095-0.876l-0.013-0.941l0.108-0.957v-0.51l-0.234-1.467l-0.026-0.536l0.061-1.066
		l0.407-1.905l0.697-1.617l0.464-0.687l2.123-2.317l0.36-0.667l0.225-0.61l0.1-0.438l0.468-0.517l0.754-0.549l4.549-1.526
		L549.862,377.712z"/>
	<path class="st0" d="M549.862,377.712l-21.756,10.599l-4.549,1.526l-0.754,0.549l-0.468,0.517l-0.1,0.438l-0.225,0.61l-0.36,0.667
		l-2.123,2.317l-0.464,0.687l-0.697,1.617l-0.407,1.905l-0.061,1.066l0.026,0.536l0.234,1.467v0.51l-0.108,0.957l0.013,0.941
		l-0.095,0.876l0.399,1.807l0.346,0.804l0.121,0.466l0.017,1.085l-0.152,1.198l-6.702,3.715l-1.819,0.405l-0.407-0.229l-1.802-0.386
		l-2.781-0.974l-2.807-0.667l-0.533-0.251l-0.342-0.242l-0.628-0.556l-2.062-1.375l-1.139-0.588l-0.312-0.281l-0.264-0.301
		l-0.338-0.817l-0.238-0.447l-0.329-0.392l-0.598-0.431l-0.468,0.052l-0.364,0.235l-2.591,4.391l-19.997-4.894l0.546-0.177
		l0.069-0.34l-0.234-0.673l-0.23-0.479l-0.342-0.294l-0.424-0.033l-0.866,0.131l-0.347-0.098l-0.104-0.275l0.767-1.656l0.299-0.262
		l0.347-0.399l0.251-0.667l0.225-1.271l0.251-0.647l0.087-0.575l-0.134-0.445l-0.858-0.806l-0.056-0.281l0.424-0.242l0.295-0.229
		l0.026-0.288l-0.312-0.137l-0.936-0.046l-0.381-0.19l-0.139-0.408l0.052-0.785l-0.069-0.51l-0.425-0.347l-0.451-0.124l-0.338-0.238
		l-0.069-0.347l0.269-0.438l0.295-0.078l0.251-0.32l-0.039-0.667l-0.446-1.362l-0.451-0.602l-0.511-0.347l-1.291-0.334l-0.42,0.065
		l-0.802,0.327l-0.424,0.131l-0.459,0.026l-0.377-0.229l-0.256-0.477l0.061-1.173l0.147-0.948l0.373-1.291l0.113-1.262l0.139-0.362
		l0.49-0.196l1.308,0.218l0.359-0.166l0.186-0.327l-0.16-0.641l-0.23-0.412l-0.178-0.432l-0.069-0.794l-0.199-0.307l-0.286-0.249
		l0.069-0.314l0.199-0.288l2.175-0.536l-5.77-2.115l-0.364-0.02l-0.398,0.092l-0.416,0.026l-1.17-0.249l-0.407,0.039l-0.438,0.085
		l-0.394,0.177l-0.364,0.222l-0.637,0.523l-0.351,0.203L457.791,379l-1.027,0.059l-0.459,0.072l-0.299,0.222l-0.087,0.329
		l0.013,0.392l-0.095,0.379l-0.295,0.209l-0.425,0.033l-0.451-0.072l-0.494-0.209l-0.433-0.412l-0.472-0.663l0.004-0.811
		l0.178-0.242l0.26-0.19l0.082-0.32l-0.043-0.427l-0.143-0.399l-0.247-0.294l-0.511-0.124l-0.546-0.268l-1.066-1.204l-0.225-0.571
		l0.069-1.027l0.485-1.003l0.234-0.982l0.225-0.373l0.061-0.393l-0.208-0.493l-0.849-0.582l-0.654-0.602l-0.464-0.321l-0.373-1.219
		l1.044-3.411l0.325-1.978l0.009-0.367l0.095-0.425l1.897-0.971l0.676,0.336l0.381,0.083h0.641l7.668-3.491l0.736-0.419l0.312-0.301
		l0.299-0.388l0.212-0.609l-0.035-0.622l-0.516-1.213l-0.091-0.569l0.043-0.583l0.555-1.283l0.13-0.618l0.052-0.484l-0.754-2.012
		l-0.763-1.868l-0.03-0.118l-0.03-0.386l0.069-0.439l0.217-0.413l1.122-1.037l2.586-4.108l0.225-0.821l0.702-1.578l4.289-13.911
		l-0.048-0.972l-1.902-10.603l0.095-0.891l0.39-0.861l1.378-0.806l1.074-0.505l2.175-0.572l3.232,0.013l-0.212-1.278l-0.195-0.524
		l-2.019-3.884l1.789-2.185l2.136-1.516l0.468-0.413l0.867-0.957l0.797-1.117l0.438-0.492l0.472-0.354l0.481-0.184l0.516-0.052
		l0.52,0.039l2.669,0.715l0.52,0.02l0.412-0.505l0.234-0.938l-1.282-9.991l-0.247-0.892l-0.217-0.485l-0.121-1.439l0.771-3.242
		l3.249-0.735l0.615-0.009l0.866,0.1l1.737,0.643l1.087,0.039l0.996-0.092l1.373-0.348l1.235-0.553l2.166-1.909l6.594-3.245
		l1.547-1.214l4.8-5.2l1.858-2.859l0.416-0.42l0.685-0.538l1.798-0.532l12.325-2.474l-0.494,3.813l0.511,1.393l1.213-0.026
		l1.438-0.418l1.178,0.234l0.832,0.028l0.875-0.639l0.81-0.105l0.637,1.634l-0.204,0.776l-0.663,0.822l-1.477,1.238l-1.148,0.534
		l-0.762,0.203l0.065,0.278l1.326,0.772l1.226,0.437l2.487,0.593l0.866,0.704l1.1-0.936l1.096,0.792l0.355,0.647l0.516,0.94
		l0.416,1.445l-0.199,0.466l-0.451,0.507l-0.351,0.525l0.117,0.525l0.581,0.728l0.199,0.367l0.52,1.659l-0.147,0.599l-0.892,0.402
		v0.577l1.867,0.028l1.321,0.293l0.884,0.853l0.563,1.714l0.91-0.424l0.801,0.026l0.672,0.372l0.528,0.603l1.664-0.177l1.854,0.203
		l1.083,0.914l-0.646,1.948l0.749,2.785l0.936,0.949l2.088,0.363l0.983,0.551l0.325,1.208l0.087,1.206l0.295,0.553l0.988,0.323
		l0.503,0.732l0.424,0.78l0.737,0.474l3.327-0.857l1.646,0.396l0.702,2.508l-0.459,1.016l-1.646,1.61l0.13,0.811l0.667,0.496
		l0.996,0.452l1.083,0.341l0.944,0.155l0.711,0.35l0.359,0.516l0.277,0.66l1.837,2.722l0.251,0.055l0.516,3.46l-0.243,1.341
		l-1.369,0.71l0.143,1.937l-1.239,1.931l-0.801,1.249l0.182,1.861l0.598-0.238l0.598-0.341l0.074,0.286l-0.004,0.203l0.087,0.103
		l0.364-0.013l-0.529,1.288l-0.641,0.426l-1.69,0.068l-2.201,0.448l-0.095,0.507l0.069,2.47l0.173,0.921l0.052,0.889l-0.286,1.061
		l-0.481,1.083l-0.338,0.518l-0.516,0.308l-1.009,0.452l-0.264-1.423l-0.875-0.277l-1.027,0.572l-0.697,1.129l0.017,1.037
		l0.775,2.74l0.351,0.838l0.732,0.871l0.914,0.43l2.417,0.43l0.039-0.26l0.594-0.373l0.693-0.135l0.338,0.454l-0.078,0.603
		l-0.225,0.426l-0.364,0.292l-0.477,0.199l0.602,1.386l-1.096,0.09l-2.994-0.952l-0.212,1.823l-1.092,0.788l-2.651,0.327
		l-1.529,0.646l-0.875,0.904l-0.689,0.995l-0.966,0.915l-3.124,0.524l-1.975,1.783l-0.468,2.163l0.797,1.366l0.806,0.076
		l0.529-1.927l1.183,0.862l0.801,1.589l0.165,1.53l-0.719,0.685l-0.814,0.511l-1.126,1.235l-0.931,1.516l-0.221,1.35l0.711,0.46
		l1.395,1.2l0.832,1.23l-0.962,0.567l-0.191,0.611l-3.552,3.477l2.166,4.565l-0.134,1.821l-2.604,1.106l1.191,0.953l0.55,1.086
		l0.398,1.234L549.862,377.712z"/>
	<path class="st0" d="M412.501,376.618l-0.15-0.001l-5.576-0.052l-2.552,0.97l-16.618,11.325l-2.478,0.538l-25.222-2.625
		l-4.025-4.217l-0.555-2.896l0.321-2.054l-2.911-4.034l-3.249-4.342l-0.667-3.11l-0.035-2.864l-0.178-1.414l-3.059-6.277
		l-0.481-1.887l-0.178-1.689l0.104-2.911l0.186-1.447l0.446-1.436l1.066-1.126l15.093-9.765l1.841-0.321l2.387-0.205l1.109-0.216
		l0.628-0.262l0.169-0.648l0.221-0.354l0.897-1.035l-3.318-1.594l-2.088-0.288l-0.277-0.124l-1.577-1.234l-0.996-0.406l-3.83-2.059
		l-2.209-0.812l-0.529-0.275l-0.295-0.277l-0.199-0.354l-0.407-1.14l-0.654-0.865l-3.739-0.945l-1.638-0.17l-1.135,0.026
		l-0.511,0.079l-0.797,0.321l-0.256,0.321l-0.091,0.465l0.017,2.402l-0.186,1.29l-0.52,1.194l-1.702,0.426l-1.72,0.177l-2.27-0.026
		l-2.82-0.517l-1.248-0.059l-0.758-0.327l-0.546-0.428l-0.516-0.701l-0.619-0.688l-0.793-0.67l-0.784-0.105l-1.053,0.321
		l-0.918,0.507l-1.915,0.74l-0.186-1.764l4.007-8.012l4.453-6.749l1.048-1.962l0.602-2.139l0.901-1.881l1.144-0.933l16.349-9.061
		l2.448-1.495l0.269-0.406l0.295-0.546l-0.009-0.367l-0.208-1.517l0.056-0.669l0.29-0.925l2.348-2.192l2.716-1.976l0.897-0.171
		l1.157,0.256l6.459,2.54l1.542-0.557l1.573-0.833l1.607-1.091l1.196-0.407l0.875-0.164l2.478-0.098l1.031,3.111l0.243,1.425
		l-0.468,5.61l0.104,0.848l0.178,0.57l0.29,0.282l0.377,0.21l0.446,0.151l0.511,0.112l0.788,0.701l0.94,1.241l1.594,3.247
		l0.572,1.49l0.243,1.042l-0.169,0.402l-0.26,0.262l-0.355,0.203l-0.827,0.17l-0.745-0.007l0.338,1.58l0.204,0.317l1.135,1.416
		l-0.637,5.411l0.169,1.706l0.498,0.655l0.308,0.192l0.823,0.262l0.641,0.708l0.147,0.537l-0.061,0.485l-0.251,0.354l-0.676,0.592
		l-0.281,0.432l0.065,0.373l0.186,0.347l0.62,0.55l0.273,0.317l0.29,0.282l0.338,0.236l1.248,0.459l0.485,0.334l0.425,0.531
		l0.563,0.991l0.121,0.517l-0.264,0.518l-0.23,0.753l0.165,0.421l-0.221,0.367l-0.325,0.255l-0.468,0.255l-0.095,0.354l0.121,0.413
		l0.537,1.004l0.321,0.36l0.398,0.21l0.425,0.072l0.485-0.02l0.546,0.052l0.633,0.223l1.438,1.175l0.996,0.661l0.121,0.504
		l0.03,0.53l0.26,0.886l0.429,0.478l0.715,0.511l0.516,0.229l0.529,0.105l0.446,0.007l0.446-0.118l0.381-0.183l0.351-0.223
		l0.26-0.21l0.442-0.17l0.784-0.131l0.542,0.059l0.581,0.151l2.266,0.878l0.277,0.421l0.095,0.504l-0.641,2.425l-0.464,1.107
		l-0.1,0.517l0.048,0.644l0.26,0.91l0.411,0.622l0.377,0.413l0.36,0.277l0.355,0.21l0.407,0.177l1.646,0.484l0.199,0.341
		l-0.043,0.354l-0.26,0.323l-0.342,0.262l-1.018,0.504l-0.858,0.321l-0.589,0.987l-0.264,0.655l-0.732,2.396l-0.143,1.368
		l-0.438,1.432l-1.75,1.392l-0.156,1.553l0.719,1.566l2.287,2.646l0.485,1.841l0.81,0.982l4.103,3.918l0.186,0.724l0.905,1.987
		l0.862,1.9l0.325,1.74l-0.286,4.237L412.501,376.618z"/>
	<path class="st0" d="M359.906,386.773l25.222,2.625l2.478-0.538l16.618-11.325l2.552-0.97l5.576,0.052l0.15,0.001l-0.033,0.574
		l0.368,1.629l0.949,0.578l4.566-0.081l1.91,0.508l1.031,1.09l-0.762,1.829l0.303,1.328l-0.84,1.206l-1.074,1.559l1.352,0.517
		l1.053,0.124l0.212,0.347l-0.433,1.258l-0.16,1.081l-0.221,0.403l-0.451,0.504l-0.308,0.658l0.347,0.471l0.533,0.416l0.26,0.497
		l-0.113,2.269l0.104,1.613l0.624,1.338l1.417,1.43l1.391,0.425l2.937-1.018l1.646,0.508l0.082,2.938l0.139,0.53l-0.191,2.225
		l-2.465,6.844l-3.882-1.052l-1.837-0.281l-16.15,5.665l-18.745-2.479l-2.352,4.756l-0.503,1.812l0.347,3.067l0.416,1.793v0.778
		l-2.313,4.304l0.121,1.525l-0.121,1.568l-0.29,0.568l-0.472,0.577l-1.144,0.777l-0.771,0.261l-0.659,0.078l-3.847,3.526
		l-15.474,18.264l-0.243-0.94l-0.217-0.261l-0.438-0.176l-0.325-0.281l-0.147-0.557l0.026-0.503l0.147-0.927l-0.074-0.424
		l-0.169-0.385l-0.268-0.316l-1.833-1.515l-0.71-1.57l-0.329-0.47l-1.993-1.243l-0.628-0.261l-1.958,0.046l-4.835,1.367
		l-2.521-5.582l-0.446-0.747l-0.398-0.497l-0.351-0.235l-0.654-0.542l-0.282-0.516l-0.256-0.793l-0.416-4.721L339.528,435
		l-0.264-0.738l-0.654-1.257l-0.407-0.64l-0.663-0.786l-1.096-0.98l-0.009-0.007l-0.017-0.013l-0.191-0.157l-0.49-0.47l-0.524-0.629
		l-1.646-2.936l-1.642-4.494l-1.07-4.002l-1.057-12.982l2.474-0.32l3.071-0.824l2.547-1.068l1.451-0.34l1.191-0.164l4.215,0.301
		l0.905-0.183l0.754-0.412l4.882-4.091l0.351-0.19l0.403-0.039l0.42,0.092l0.407,0.17l1.542,0.817l0.65,0.44l0.537-0.362
		l0.684-0.896l2.019-3.895l0.736-2.086L359.906,386.773z"/>
	<path class="st0" d="M530.142,259.278l-12.325,2.474l-1.798,0.532l-0.685,0.538l-0.416,0.42l-1.858,2.859l-4.8,5.2l-1.547,1.214
		l-6.594,3.245l-2.166,1.909l-1.235,0.553l-1.373,0.348l-0.996,0.092l-1.087-0.039l-1.737-0.643l-0.866-0.1l-0.615,0.009
		l-3.249,0.735l-0.771,3.242l0.121,1.439l0.217,0.485l0.247,0.892l1.282,9.991l-0.234,0.938l-0.412,0.505l-0.52-0.02l-2.669-0.715
		l-0.52-0.039l-0.516,0.052l-0.481,0.184l-0.472,0.354l-0.438,0.492l-0.797,1.117l-0.867,0.957l-0.468,0.413l-2.136,1.516
		l-1.789,2.185l-6.723,0.249l-2.136-0.236l-0.477-0.315l-1.538-1.543l-1.083-0.669l-0.697-0.236l-0.646-0.046l-4.956,0.308
		l-1.3,0.334l-0.979,0.498l-1.456,1.811l-1.248,2.336l-0.667,0.636l-1.035,0.636l-4.726,1.772l-1.17,0.71l-0.546,0.426l-0.472,0.465
		l-0.394,0.485l-0.334,0.524l-0.524,1.077l-0.186,0.531l-0.52,0.629l-0.871,0.716l-9.401,4.565l-1.521,1.723l-0.897,1.987
		l-0.468,0.563l-0.494,0.157l-0.615-0.02l-0.676,0.074l-1.022,0.465l-0.65,0.655l-1.547,1.974l-0.637,0.419l-0.589,0.151
		l-1.577-0.255l-0.555,0.013l-2.638,0.714l-0.78,0.111l-0.637-0.026l-0.529-0.183l-0.511-0.275l-0.494-0.373l-1.469-1.62
		l-1.694-2.465l-0.407-0.472l-0.52-0.426l-0.749-0.314l-0.624-0.026l-0.589,0.105l-3.483,1.461l-9.643,2.413l-1.369,0.026
		l-2.461-0.308l0.264-0.518l-0.121-0.517l-0.563-0.991l-0.425-0.531l-0.485-0.334l-1.248-0.459l-0.338-0.236l-0.29-0.282
		l-0.273-0.317l-0.62-0.55l-0.186-0.347l-0.065-0.373l0.281-0.432l0.676-0.592l0.251-0.354l0.061-0.485l-0.147-0.537l-0.641-0.708
		l-0.823-0.262l-0.308-0.192l-0.498-0.655l-0.169-1.706l0.637-5.411l-1.135-1.416l-0.204-0.317l-0.338-1.58l0.745,0.007l0.827-0.17
		l0.355-0.203l0.26-0.262l0.169-0.402l-0.243-1.042l-0.572-1.49l-1.594-3.247l-0.94-1.241l-0.788-0.701l-0.511-0.112l-0.446-0.151
		l-0.377-0.21l-0.29-0.282l-0.178-0.57l-0.104-0.848l0.468-5.61l-0.243-1.425l-1.031-3.111l1.395-0.84l0.459-0.546l0.823-1.233
		l0.247-0.756l0.065-0.649l-0.442-1.299l-0.217-0.921l-0.065-1.056l0.035-0.514l0.368-1.41l0.173-0.394l1.213-1.668l0.342-0.82
		l0.251-0.914l0.065-0.485l-0.017-0.518l-0.104-0.479l-0.295-0.862l-0.364-1.522l-0.026-0.809l0.754-3.979l0.009-0.013l0.009-0.026
		l0.754-0.249l1.265-0.153l0.793-0.026l2.816,0.206l3.6-0.58l2.175-0.945l4.878-3.218l0.49-0.54l0.26-0.486l0.048-0.702
		l-0.104-1.308l0.468-0.19l0.936-0.269l2.5,0.059l1.365,0.348l0.685-1.291l1.217-0.236l1.399,0.368l1.161,0.582l0.637-1.155
		l1.057,0.276l0.663-0.764l0.173-1.175l-0.936-1.991l1.139-0.385l1.226-0.061h1.256l1.144-1.814l-0.156-2.164l-1.56-4.119h1.716
		l-0.715-1.471l-1.113-0.668l-1.187-0.333l-0.94-0.473l-0.338-0.51l-0.858-1.856l-0.351-0.381l-0.416-0.269l-0.953-0.453
		l-1.715-1.211l-0.537-0.204l-4.042-0.952l-0.169-0.341l-0.091-0.574l-0.165-0.532l-0.407-0.236h-2.89l-0.667-0.18l-0.381-0.398
		l-0.299-0.398l-0.394-0.18l-0.918-0.641l-2.352-2.82l-0.763-0.642l-0.269-0.182l0.446-0.396l0.788-0.399l0.754-0.182l0.754,0.099
		l1.56,0.534l2.066,0.153l0.749-0.322l0.931-1.042l-6.875-3.949l-0.451-1.397l0.676-0.683l-0.043-0.712l-0.147-0.453l-0.334-0.263
		h-0.433l-0.403,0.079h-0.433l-0.338-0.177l-0.312-0.223l-0.251-0.243l-0.204-0.309l-0.074-0.436l0.017-0.493l0.078-0.493
		l0.035-2.342l-0.208-0.447l-0.295-0.322l-0.368-0.224l-0.416-0.171l-0.442-0.118l-0.455-0.061l-0.455,0.066l-0.377,0.184
		l-0.676,0.449l-0.381,0.059l-0.321-0.151l-0.853-0.876l-0.238-0.329l-0.078-0.46l-0.03-1.369l0.13-0.296l0.377-0.105l0.334-0.21
		l0.156-0.71l0.026-0.611l0.273-1.58l-0.087-0.539l-0.173-0.44l-0.243-0.337l-0.113-0.375l0.069-0.388l0.503-0.342l0.918-0.02
		l0.399-0.125l0.277-0.263l-0.026-0.508l-0.277-0.296l-0.789-0.401l-0.221-0.348l-0.264-0.907l-0.234-0.357l-0.338-0.25
		l-0.399-0.145l-0.438,0.099l-0.368,0.331l-0.273,0.631l-0.403,0.381l-0.26-0.013l-0.117-0.486l0.039-0.723l0.849-3.036l1.178-2.955
		l0.446-0.605l0.663-0.164h0.529l0.485,0.138l0.676,0.447l0.438,0.145l1.56,0.145l0.923,0.21h0.472l0.429-0.099l0.433-0.138
		l0.771-0.355l0.355-0.217l0.321-0.25l1.183-1.16l0.325-0.257l0.377-0.171l0.433-0.145l0.914-0.197l1.482-0.118l0.55,0.039
		l0.68,0.138l0.784,0.434l0.906,0.086l0.455-0.026l0.494-0.316l0.797,0.033l0.845-0.307l0.581-0.173l0.62-0.866l-0.143-1.063
		l-0.503-0.162l-1.222-0.837l-0.875-0.93l0.546-0.441l2.166-0.658l-0.468-3.28l2.071-1.276l-1.222-0.982l-0.494-0.23v-0.526
		l0.901-0.057l0.884,0.083l0.832,0.202l0.763,0.298l-1.386-2.562l-5.03-3.292l0.126-2.259l1.88,0.314l1.291-1.171l0.866-1.908
		l1.031-3.725l0.022-1.452l-0.507-1.279l-1.152-1.266l2.556,0.158l1.594-1.551l0.819-2.517l0.234-2.73l0.516-2.234l1.248-2.252
		l2.816-3.425l1.837,0.448l3.83-0.606h1.027l0.481,0.105l0.49,0.461l0.516,0.773l2.027,4.911l0.234,0.448l0.346,0.421l0.68,0.481
		l0.585,0.184l0.568,0.061l0.438-0.127l0.381-0.191l0.299-0.244l0.637-0.645l0.49-0.606l0.394-0.257l0.667-0.158l8.595,1.462
		l1.261,0.375l0.957,0.476l0.256,0.988l0.312,2.603l-0.004,1.174l0.061,0.619l0.182,0.645l0.464,0.856l0.29,0.397l0.836,0.79
		l0.26,0.336l0.217,0.362l0.97,2.49l0.429,0.549l0.451,0.362l0.438,0.151l0.793,0.375l0.927,0.816l0.39,0.184l1.265,0.198
		l0.385,0.16l0.68,0.395l0.814,0.138l0.338,0.204l0.286,0.276l0.234,0.355l0.13,0.691l0.026,0.976l-1.109,7.764l0.009,0.046
		l0.022,0.053l0.048,0.151l-0.104,0.579l-0.338,0.871l-1.092,1.612l-0.65,0.653l-0.602,0.25l-0.646,0.434v3.127l30.594,0.989
		l1.018-0.528l0.983-0.316h0.607l0.693,0.191l3.067,1.18l0.29,0.237l0.26,0.322l0.429,0.737l0.719,0.449l1.152,0.48l2.812,0.677
		l1.183,0.454l0.754,0.421l0.81,1.508l0.277,0.316l0.312,0.27l1.503,0.824l0.632,0.546l0.251,0.342l0.208,0.368l0.269,0.883
		l0.71,5.107l0.139,0.493l0.208,0.467l0.407,0.454l0.459,0.197l0.529,0.053l1.958-0.447l0.633-0.079h0.94l0.55,0.171l0.39,0.285
		l0.204,0.375l0.169,0.993l0.286,0.519l0.49,0.502l1.677,0.953l0.407,0.408l0.394,0.894l0.308,0.469l0.598,0.513l0.529,0.21
		l0.529,0.026l0.459-0.092l0.91-0.368l0.563-0.158l0.84-0.085l0.507,0.138l0.394,0.25l0.693,0.776l0.615,0.5l0.572,0.158l0.52,0.007
		l0.498-0.085l0.446-0.145l0.737-0.02l0.944,0.046l1.858,0.414l0.992,0.092l0.754-0.004l1.464-0.383l0.68-0.066l1.053,0.013
		l1.334,0.322l0.294,0.158l0.212,0.173l0.828,0.966l0.438,0.394l0.459,0.125l0.442-0.053l1.313-0.519l0.806-0.224l1.235-0.21
		l0.39,0.438l0.507,1.873l-0.156,1.187l-2.339,1.77l-0.62,1.124l-1.447,0.458l-0.49,0.464l0.212,1.513l3.071,1.726l0.775,1.68
		l-0.372,1.091l-0.537,1.566l-1.755,0.585l-1.144,0.221l-0.251-0.28l-0.55,1.112l0.178,0.67l0.511,0.517l0.433,0.648l0.199,0.098
		l0.338-0.028l0.364,0.07l0.247,0.385l0.022,0.631l-0.208,0.359l-0.26,0.245l-0.13,0.289l-0.225,0.76l-0.36,0.23l0.004,0.293
		l0.866,0.952l0.425,0.652l0.152,0.817l-0.208,0.891l-0.654,0.876l-1.226,0.225l-4.167-0.035l-0.897,0.125l0.078,0.819l0.355,1.195
		l0.087,0.851l0.438,0.576l1.971,1.195l0.503,0.832l-0.217,1.005l-1.256,1.749l-0.295,1.033l0.243,0.998l0.624,0.256l0.841,0.07
		l0.892,0.438l3.206,3.974l1.113,0.993l-0.208,0.433l-0.654,0.932l-0.333,0.368l-1.893-0.61l-1.438,1.114l-0.923,2.076
		L530.142,259.278z"/>
	<path class="st0" d="M475.574,302.607l2.019,3.884l0.195,0.524l0.212,1.278l-3.232-0.013l-2.175,0.572l-1.074,0.505l-1.378,0.806
		l-0.39,0.861l-0.095,0.891l1.902,10.603l0.048,0.972l-4.289,13.911l-0.702,1.578l-0.225,0.821l-2.586,4.108l-1.122,1.037
		l-0.217,0.413l-0.069,0.439l0.03,0.386l0.03,0.118l0.763,1.868l0.754,2.012l-0.052,0.484l-0.13,0.618l-0.555,1.283l-0.043,0.583
		l0.091,0.569l0.516,1.213l0.035,0.622l-0.212,0.609l-0.299,0.388l-0.312,0.301l-0.736,0.419l-7.668,3.491h-0.641l-0.381-0.083
		l-0.676-0.336l-1.897,0.971l-0.095,0.425l-0.009,0.367l-0.325,1.978l-1.044,3.411l0.373,1.219l0.464,0.321l0.654,0.602l0.849,0.582
		l0.208,0.493l-0.061,0.393l-0.225,0.373l-0.234,0.982l-0.485,1.003l-0.069,1.027l0.225,0.571l1.066,1.204l0.546,0.268l0.511,0.124
		l0.247,0.294l0.143,0.399l0.043,0.427l-0.082,0.32l-0.26,0.19l-0.178,0.242l-0.004,0.811l0.472,0.663l0.433,0.412l0.494,0.209
		l0.451,0.072l0.425-0.033l0.295-0.209l0.095-0.379l-0.013-0.392l0.087-0.329l0.299-0.222l0.459-0.072l1.027-0.059l0.438-0.111
		l0.351-0.203l0.637-0.523l0.364-0.222l0.394-0.177l0.438-0.085l0.407-0.039l1.17,0.249l0.416-0.026l0.398-0.092l0.364,0.02
		l5.77,2.115l-2.175,0.536l-0.199,0.288l-0.069,0.314l0.286,0.249l0.199,0.307l0.069,0.794l0.178,0.432l0.23,0.412l0.16,0.641
		l-0.186,0.327l-0.359,0.166l-1.308-0.218l-0.49,0.196l-0.139,0.362l-0.113,1.262l-0.373,1.291l-0.147,0.948l-0.061,1.173
		l0.256,0.477l0.377,0.229l0.459-0.026l0.424-0.131l0.802-0.327l0.42-0.065l1.291,0.334l0.511,0.347l0.451,0.602l0.446,1.362
		l0.039,0.667l-0.251,0.32l-0.295,0.078l-0.269,0.438l0.069,0.347l0.338,0.238l0.451,0.124l0.425,0.347l0.069,0.51l-0.052,0.785
		l0.139,0.408l0.381,0.19l0.936,0.046l0.312,0.137l-0.026,0.288l-0.295,0.229l-0.424,0.242l0.056,0.281l0.858,0.806l0.134,0.445
		l-0.087,0.575l-0.251,0.647l-0.225,1.271l-0.251,0.667l-0.347,0.399l-0.299,0.262l-0.767,1.656l0.104,0.275l0.347,0.098
		l0.866-0.131l0.424,0.033l0.342,0.294l0.23,0.479l0.234,0.673l-0.069,0.34l-0.546,0.177l-2.045,2.428l-1.945,0.863l-2.413,0.164
		l-2.634-0.137l-0.797-0.281l-0.451-0.072l-0.737-0.196l-0.399-0.15l-1.291-0.294l-1.196-0.105l-0.702,0.052l-5.129,1.532
		l-0.797,0.111l-2.248-0.052l-2.812-0.447l-1.521-0.869l-12.888-10.554l-0.71-0.316h-0.511l-0.386,0.179l-1.46,1l-1.646-0.508
		l-2.937,1.018l-1.391-0.425l-1.417-1.43l-0.624-1.338l-0.104-1.613l0.113-2.269l-0.26-0.497l-0.533-0.416l-0.347-0.471l0.308-0.658
		l0.451-0.504l0.221-0.403l0.16-1.081l0.433-1.258l-0.212-0.347l-1.053-0.124l-1.352-0.517l1.074-1.559l0.84-1.206l-0.303-1.328
		l0.762-1.829l-1.031-1.09l-1.91-0.508l-4.566,0.081l-0.949-0.578l-0.368-1.629l0.033-0.574l0.006-0.1l0.286-4.237l-0.325-1.74
		l-0.862-1.9l-0.905-1.987l-0.186-0.724l-4.103-3.918l-0.81-0.982l-0.485-1.841l-2.287-2.646l-0.719-1.566l0.156-1.553l1.75-1.392
		l0.438-1.432l0.143-1.368l0.732-2.396l0.264-0.655l0.589-0.987l0.858-0.321l1.018-0.504l0.342-0.262l0.26-0.323l0.043-0.354
		l-0.199-0.341l-1.646-0.484l-0.407-0.177l-0.355-0.21l-0.36-0.277l-0.377-0.413l-0.411-0.622l-0.26-0.91l-0.048-0.644l0.1-0.517
		l0.464-1.107l0.641-2.425l-0.095-0.504l-0.277-0.421l-2.266-0.878l-0.581-0.151l-0.542-0.059l-0.784,0.131l-0.442,0.17l-0.26,0.21
		l-0.351,0.223l-0.381,0.183l-0.446,0.118l-0.446-0.007l-0.529-0.105l-0.516-0.229l-0.715-0.511l-0.429-0.478l-0.26-0.886
		l-0.03-0.53l-0.121-0.504l-0.996-0.661l-1.438-1.175l-0.633-0.223l-0.546-0.052l-0.485,0.02l-0.425-0.072l-0.398-0.21l-0.321-0.36
		l-0.537-1.004l-0.121-0.413l0.095-0.354l0.468-0.255l0.325-0.255l0.221-0.367l-0.165-0.421l0.23-0.753l2.461,0.308l1.369-0.026
		l9.643-2.413l3.483-1.461l0.589-0.105l0.624,0.026l0.749,0.314l0.52,0.426l0.407,0.472l1.694,2.465l1.469,1.62l0.494,0.373
		l0.511,0.275l0.529,0.183l0.637,0.026l0.78-0.111l2.638-0.714l0.555-0.013l1.577,0.255l0.589-0.151l0.637-0.419l1.547-1.974
		l0.65-0.655l1.022-0.465l0.676-0.074l0.615,0.02l0.494-0.157l0.468-0.563l0.897-1.987l1.521-1.723l9.401-4.565l0.871-0.716
		l0.52-0.629l0.186-0.531l0.524-1.077l0.334-0.524l0.394-0.485l0.472-0.465l0.546-0.426l1.17-0.71l4.726-1.772l1.035-0.636
		l0.667-0.636l1.248-2.336l1.456-1.811l0.979-0.498l1.3-0.334l4.956-0.308l0.646,0.046l0.697,0.236l1.083,0.669l1.538,1.543
		l0.477,0.315l2.136,0.236L475.574,302.607z"/>
	<path class="st0" d="M354.461,293.965l-1.495-2.12l-1.408-0.918l-2.227-0.695l-3.175-1.327l-0.763-0.525l-0.372-0.485l-0.299-2.612
		l-0.126-0.459l-0.165-0.409l-0.953-1.6l-1.014-2.245l-2.578-0.105l-12.503,3.012l-2.526,0.118l-1.915-0.144l-12.468-3.631
		l-30.75,1.819l-2.383,0.544l-1.845,1.117l-2.01,2.114l-0.923-2.225l-0.537-2.934l-0.312-5.529l-0.173-0.597l-0.749-0.905
		l-0.173-0.861l0.095-1.365l0.165-0.553l0.316-0.63l0.862-1.089l0.849-0.796l0.572-1.004l0.009-1.734l-1.022-2.607l-1.438-3.544
		l-0.407-1.73v-2.943l0.191-0.726l0.78-1.125l0.126-0.672l-0.49-1.387l-0.736-1.098l-0.398-1.169l0.529-1.604l-1.005-1.175
		l-1.057-2.186l-0.533-2.108l0.875-1.392l-0.013-3.763l-0.065-0.492l0.264-0.469l0.962-0.665l-1.62-1.035l-1.282-1.344l-0.849-1.666
		l-0.823-5.211v-3.471l-0.511-1.929l-1.1-2.361l-0.442-3.187l-0.607-1.759l-0.897-1.577l-1.079-0.815l1.018-0.359l0.108-0.436
		l-0.607-0.331l-1.144-0.031l0.814-1.564l0.29-1.643l0.091-3.162l0.996-4.069l0.152-1.46l0.16-0.723l0.736-0.708l0.195-0.62
		l-0.156-0.653l-0.758-1.471l-0.178-0.484l-0.095-1.545l-0.351-1.333l-0.715-0.978l-1.183-0.487l0.62-0.734l0.386-0.763l0.178-0.897
		l0.013-1.136l0.529-0.98l-0.009-0.495l-0.806-0.21l-0.65-0.053l-0.355-0.186l-0.208-0.355l0.074-0.366l0.16-0.165l1.126-0.039
		l2.118-0.618l1.157-0.884l1.343-1.237l1.027-0.654l0.767-0.941l0.139-0.316l0.004-0.013l0.156-0.197l0.238-0.204l0.416-0.184
		l0.524-0.046l0.767,0.191l0.429,0.224l0.225,0.158l0.052,0.059l0.009,0.02l0.013,0.013l0.191,0.191l0.299,0.197l0.39,0.191
		l0.494,0.085l1.469-0.112l0.468,0.059l0.368,0.191l0.273,0.311l0.927,1.388l0.277,0.322l0.338,0.27l0.39,0.211l0.446,0.147
		l0.472,0.083l0.529,0.026l1.369-0.136l2.378-0.482l0.568,0.125l0.459,0.21l0.316,0.279l0.472,0.204l0.633,0.059l0.94-0.053
		l0.529,0.145l0.411,0.23l0.602,0.585l0.312,0.138l0.282-0.007l0.156-0.526l0.026-0.513l-0.398-3.813v-0.02l-0.009-0.033
		l-0.065-1.217l0.061-0.575l0.182-0.625l0.529-0.816l0.238-0.621l0.126-0.54l0.498-0.507l0.866-0.428l3.327-0.79l1.018-0.357
		l1.044-0.711l0.758-0.368l2.062-0.566l3.063-1.838l3.006,0.402l-0.658,0.546l-0.091,0.812l0.975,1.092l0.624,0.579l0.321,0.184
		l0.472,0.158l7.135,0.516l0.758-0.259l0.862-0.493l1.473-1.264l0.494-0.77l0.139-0.608l-0.732-1.582l-0.108-0.434l-0.017-0.467
		l0.113-0.434l0.191-0.395l0.251-0.316l0.308-0.25l0.503-0.204l0.645-0.14h1.161l0.659,0.127l0.494,0.224l0.884,0.836l0.477,0.711
		l0.295,0.608l0.685,1.823l0.416,0.73l0.477,0.673l0.598,0.619l0.351,0.257l0.394,0.197l0.455,0.118l0.745-0.342l0.923-0.73
		l1.685-1.944l1.521-2.115l0.468-0.382l0.944-0.395l0.633-0.046l0.598-0.125l0.468-0.336l0.494-0.917l0.472-1.883l0.36-0.858
		l0.217-0.355l0.845-0.625l2.3-0.448l1.646,0.434h0.477l0.637,0.072l0.983,0.204l1.776,1.067l2.014,2.549l0.351,0.72l0.065,0.5
		l0.004,0.5l-0.091,0.48l-0.195,0.408l-0.269,0.351l-0.923,0.849l-0.516,0.651l-1.23,2.332l-0.13,0.487l-0.065,0.489l0.013,0.507
		l0.074,0.434l0.143,0.441l0.381,0.792l0.866,1.277l0.234,0.454l0.459,1.292l0.165,0.316l0.191,0.263l0.017,0.02l0.013,0.02
		l5.463,3.544l1.629,0.803l0.399,0.303l0.303,0.428l0.186,0.743l0.126,1.101l0.121,0.447l1.482,3.067l12.771,20.053l0.667,0.388
		l17.277,6.368l11.056,2.683l0.451,1.397l6.875,3.949l-0.931,1.042l-0.749,0.322l-2.066-0.153l-1.56-0.534l-0.754-0.099
		l-0.754,0.182l-0.788,0.399l-0.446,0.396l0.269,0.182l0.763,0.642l2.352,2.82l0.918,0.641l0.394,0.18l0.299,0.398l0.381,0.398
		l0.667,0.18h2.89l0.407,0.236l0.165,0.532l0.091,0.574l0.169,0.341l4.042,0.952l0.537,0.204l1.715,1.211l0.953,0.453l0.416,0.269
		l0.351,0.381l0.858,1.856l0.338,0.51l0.94,0.473l1.187,0.333l1.113,0.668l0.715,1.471h-1.716l1.56,4.119l0.156,2.164l-1.144,1.814
		h-1.256l-1.226,0.061l-1.139,0.385l0.936,1.991l-0.173,1.175l-0.663,0.764l-1.057-0.276l-0.637,1.155l-1.161-0.582l-1.399-0.368
		l-1.217,0.236l-0.685,1.291l-1.365-0.348l-2.5-0.059l-0.936,0.269l-0.468,0.19l0.104,1.308l-0.048,0.702l-0.26,0.486l-0.49,0.54
		l-4.878,3.218l-2.175,0.945l-3.6,0.58l-2.816-0.206l-0.793,0.026l-1.265,0.153l-0.754,0.249l-0.009,0.026l-0.009,0.013
		l-0.754,3.979l0.026,0.809l0.364,1.522l0.295,0.862l0.104,0.479l0.017,0.518l-0.065,0.485l-0.251,0.914l-0.342,0.82l-1.213,1.668
		l-0.173,0.394l-0.368,1.41l-0.035,0.514l0.065,1.056l0.217,0.921l0.442,1.299l-0.065,0.649l-0.247,0.756l-0.823,1.233l-0.459,0.546
		l-1.395,0.84l-2.478,0.098l-0.875,0.164l-1.196,0.407l-1.607,1.091l-1.573,0.833l-1.542,0.557l-6.459-2.54l-1.157-0.256
		l-0.897,0.171l-2.716,1.976l-2.348,2.192l-0.29,0.925l-0.056,0.669l0.208,1.517l0.009,0.367l-0.295,0.546l-0.269,0.406
		L354.461,293.965z"/>
</g>
<g id="Copyright">
	<text transform="matrix(1 0 0 1 681.6426 577.5916)" class="st1 st2"> Vemaps.com</text>
</g>
</svg>
